<?xml version="1.0" encoding="UTF-8"?><svg xmlns="http://www.w3.org/2000/svg" xmlns:xlink="http://www.w3.org/1999/xlink" height="186.7" preserveAspectRatio="xMidYMid meet" version="1.0" viewBox="-1.0 36.4 613.8 186.7" width="613.8" zoomAndPan="magnify"><linearGradient gradientUnits="userSpaceOnUse" id="a" x1="-1" x2="612.8" xlink:actuate="onLoad" xlink:show="other" xlink:type="simple" xmlns:xlink="http://www.w3.org/1999/xlink" y1="129.701" y2="129.701"><stop offset="0" stop-color="#0ff"/><stop offset=".999" stop-color="#9a00e9"/></linearGradient><path d="M382.1,126c-8.7,0-17.4-0.3-26.1-0.9c-66.4-4.7-127.8-16.5-182.5-35C116.1,70.5,48.1,81.3,0.2,117.6 l-0.5-0.6C47.8,80.5,116,69.7,173.6,89.3c54.6,18.5,116,30.3,182.3,35c47.5,3.4,93.7-2.4,137.3-17.2c44.5-15.1,84.3-38.9,118.4-70.7 l0.5,0.5c-34.2,31.9-74.1,55.8-118.7,70.9C457.9,119.9,420.5,126,382.1,126z M444.6,127.3c17.3-3.7,33.9-9.6,49.3-15.5 c18.8-7.2,40.8-16.1,61.8-27.8c22.6-12.5,41.6-26.5,56.6-41.7l-0.5-0.5C596.9,57,577.9,71,555.4,83.4c-21,11.6-43,20.5-61.7,27.7 c-15.3,5.9-31.9,11.8-49.2,15.5c-26.3,5.6-54.8,6.3-92.4,2.3c-2.9-0.3-5.8-0.6-8.8-0.9c-10.7-1.2-21.8-2.3-32.7-3.3 c-7.6-0.7-15.2-1.3-22.5-1.9c-18.9-1.5-36.8-3-55.1-5.6c-5.8-0.8-12.1-1.8-18.4-3.3c-9.8-2.5-19.4-5.8-28.7-9.7 c-5-2.1-10.3-4.3-16-6.9c-15.4-7-31.7-11.7-48.4-13.9c-4.2-0.6-8.6-0.9-12.8-1c-4,0-8.1,0.3-12,0.8C60.6,87.6,26.3,102.5,0,125.3 l0.5,0.6C26.7,103.2,60.9,88.4,96.8,84c4-0.5,8-0.8,11.9-0.8c4.2,0.1,8.5,0.4,12.7,1c16.7,2.2,32.9,6.9,48.2,13.9 c5.7,2.6,11,4.8,16,6.9c9.3,4,19,7.3,28.8,9.8c6.4,1.5,12.6,2.5,18.5,3.3c18.3,2.6,36.2,4.1,55.1,5.6c7.4,0.6,15,1.2,22.5,1.9 c10.9,1,22,2.2,32.7,3.3c2.9,0.3,5.8,0.6,8.8,0.9c15.8,1.7,30,2.5,43.2,2.5C413.3,132.2,429.3,130.6,444.6,127.3z M441.9,134.7 c15.1-3.6,28.7-9.3,43.2-15.4c2-0.8,4-1.7,6-2.5c5.1-2.1,10.4-4.3,15.5-6.3c15.9-6.4,32.3-13.1,47.9-21c25.1-12.8,44-26.5,57.9-41.9 l-0.6-0.5c-13.8,15.3-32.7,29-57.7,41.7c-15.5,7.9-31.9,14.5-47.8,21c-5.1,2.1-10.3,4.2-15.5,6.3c-2,0.8-4,1.7-6,2.5 c-14.4,6-28,11.8-43.1,15.3c-31,7.4-63.3,3.8-93.7-0.4c-15.7-2.2-28.9-3.9-42.2-4.7c-13.9-0.9-27.4-1-40.5-1 c-12.3-0.1-25-0.1-37.5-0.9c-6.3-0.3-12.5-1-18.7-2.3c-10.3-2.3-19.7-6.8-28.2-11.3c-4.8-2.5-9.9-5.3-15-8.2 c-15.5-8.9-30.5-15-45.9-18.4c-4.2-1-8.5-1.6-12.8-1.8c-4.1,0-8.3,0.3-12.3,1c-36.2,5.8-70,22.6-95.3,47.4l0.5,0.5 c25.2-24.6,58.9-41.4,95-47.1c4-0.7,8.1-1,12.2-1c4.3,0.1,8.5,0.7,12.7,1.7c15.4,3.4,30.3,9.4,45.7,18.3c5.1,2.9,10.2,5.7,15,8.3 c8.6,4.5,18.1,9,28.4,11.4c6.2,1.3,12.5,2,18.8,2.3c12.5,0.8,25.2,0.8,37.5,0.9c13.1,0.1,26.6,0.1,40.5,1 c13.3,0.9,26.5,2.5,42.2,4.7c17.6,2.5,35.9,4.7,54.2,4.7C415.5,139,428.8,137.9,441.9,134.7z M439.3,142.1 c13.3-3.5,25.6-9.3,37.5-14.9c3.8-1.8,7.6-3.6,11.5-5.3c9.8-4.4,20.1-8.4,30-12.3c11.5-4.5,23.5-9.2,34.9-14.6 c26.9-12.6,46.2-26.4,59.1-42l-0.6-0.5c-12.8,15.6-32.1,29.2-58.9,41.8c-11.4,5.3-23.3,10-34.8,14.6c-9.9,3.9-20.2,7.9-30,12.3 c-3.9,1.7-7.8,3.6-11.5,5.3c-12.4,5.8-24.2,11.4-37.4,14.8c-30.5,8-61.2,2.7-93.7-3l-1.2-0.2c-12.8-2.2-27.9-4.6-42.9-5.2 c-16.3-0.6-31.9,0.6-47,1.8c-10.3,0.8-20.9,1.7-31.4,1.9c-6.3,0.3-12.7-0.1-18.9-1.3c-10.3-2.2-19.4-7.4-27.8-12.8 c-4.3-2.8-8.8-5.8-14.1-9.6c-15.5-11.2-28.8-18.2-43.4-22.9c-4.1-1.4-8.4-2.3-12.8-2.6c-4.2-0.1-8.4,0.4-12.5,1.3 C57,95.9,23.7,114.6-0.4,141.5l0.6,0.5c23.9-26.7,57.1-45.3,93.5-52.5c4-0.9,8.2-1.3,12.3-1.3c4.3,0.3,8.5,1.2,12.6,2.6 c14.4,4.6,27.8,11.6,43.2,22.8c5.3,3.8,9.8,6.9,14.1,9.6c8.4,5.4,17.6,10.8,28,12.9c6.3,1.2,12.7,1.6,19.1,1.3 c10.5-0.2,21.2-1.1,31.4-1.9c15.1-1.2,30.6-2.4,46.9-1.8c15,0.6,30.1,2.9,42.8,5.2l1.2,0.2c20.7,3.6,40.6,7,60.3,7 C416.9,146.2,428.1,145.1,439.3,142.1z M436.7,149.5c12.4-3.5,23.7-9.5,34.7-15.3c4.6-2.4,9.4-5,14.3-7.3 c12.3-5.9,25.4-10.8,38.1-15.4c9.4-3.5,19-7,28.3-11c28.5-12.3,48.2-26.1,60.4-42.1l-0.6-0.5c-12.1,16-31.8,29.6-60.1,41.9 c-9.3,4-18.9,7.6-28.3,11c-12.7,4.7-25.8,9.6-38.1,15.5c-4.9,2.3-9.7,4.9-14.3,7.3c-11.4,6-22.2,11.7-34.5,15.2 c-28.6,8.2-57.5,2.2-88-4.2c-2.7-0.6-5.5-1.1-8.2-1.7c-12.8-2.6-28-5.4-43.7-5.6c-17.7-0.3-34.3,2.5-50.3,5.2 c-9.3,1.5-18.9,3.2-28.4,4.1c-5.8,0.6-12.5,1.1-19.2-0.2c-10.7-2.1-19.8-8.4-27.3-14.4c-4.1-3.2-8.3-6.7-13.1-11 c-11.3-10.1-24.1-20.3-40.8-27.3c-4-1.9-8.3-3-12.8-3.5c-4.3-0.1-8.6,0.4-12.7,1.5c-36.7,8.5-69.6,29.1-92.4,58l0.6,0.5 c22.8-28.8,55.5-49.3,92-57.7c4.1-1.1,8.3-1.6,12.5-1.5c4.3,0.4,8.6,1.6,12.5,3.4c16.6,7,29.3,17.2,40.6,27.2 c4.9,4.3,9.1,7.8,13.2,11c7.6,6,16.8,12.4,27.6,14.5c6.8,1.3,13.6,0.8,19.4,0.3c9.6-1,19.2-2.6,28.5-4.1c16-2.7,32.5-5.4,50.2-5.2 c15.6,0.2,30.7,3,43.5,5.6c2.7,0.6,5.5,1.1,8.2,1.7c20,4.2,39.2,8.2,58.2,8.2C416.7,153.5,426.7,152.4,436.7,149.5z M434,156.9 c12-3.7,22.7-9.9,33-16c5.1-3,10.4-6.1,15.9-8.9c13.8-7.1,28.8-12.2,43.4-17.2c8.1-2.8,16.4-5.7,24.5-8.8 c30-11.9,50.2-25.7,61.7-42.3l-0.6-0.4c-11.4,16.4-31.5,30.2-61.4,42c-8,3.2-16.4,6-24.5,8.8c-14.6,5-29.6,10.2-43.5,17.3 c-5.5,2.8-10.8,5.9-15.9,8.9c-10.3,6-21,12.3-32.8,15.9c-27.7,8.5-55.4,1.7-84.9-5.6c-4.1-1-8.4-2.1-12.6-3.1c-13-3-28.4-6.1-44.4-6 c-18.6,0.2-35.8,4.5-52.3,8.7c-8.7,2.2-17.7,4.5-26.8,6.1c-5.8,1-12.5,2-19.4,0.8c-11.1-2-20.2-9.6-26.8-15.9 c-3.8-3.6-7.8-7.7-12.2-12.4c-10.6-11.5-22.3-23.4-38.3-31.8c-3.6-1.9-7.9-3.9-12.7-4.3c-4.5-0.4-9,0.7-12.9,1.7 c-36.7,9.8-69.1,32.3-91,63.3l0.6,0.4c21.9-30.9,54-53.3,90.6-63c3.8-1,8.2-2.1,12.7-1.7c4.7,0.4,9,2.3,12.4,4.2 c15.9,8.3,27.5,20.2,38.1,31.6c4.4,4.7,8.4,8.8,12.2,12.4c6.7,6.4,15.9,14,27.2,16.1c7,1.3,13.8,0.3,19.7-0.8 c9.1-1.6,18.1-3.9,26.8-6.2c16.5-4.2,33.6-8.6,52.1-8.7c15.9-0.2,31.3,3,44.2,6c4.2,1,8.5,2,12.6,3.1c19.8,4.9,38.8,9.6,57.6,9.6 C415.6,160.9,424.8,159.7,434,156.9z M208.1,166.9c8.7-2.3,17.4-5.2,25.7-8.1c16.8-5.8,34.2-11.8,53.6-12.4 c16.5-0.5,32.6,3.2,44.9,6.5c5.2,1.4,10.4,2.9,15.5,4.3c28.9,8.3,56.3,16.1,83.6,7.1c11.7-3.8,21.9-10.5,31.9-16.9 c5.4-3.5,11.1-7.2,16.9-10.3c14.9-8.1,31.4-13.3,47.4-18.4c7.2-2.3,14.7-4.7,22-7.2c31.4-11.4,52-25.3,63-42.4l-0.6-0.4 c-10.9,17-31.4,30.8-62.6,42.1c-7.2,2.6-14.7,5-21.9,7.2c-16,5.1-32.6,10.3-47.6,18.4c-5.9,3.2-11.5,6.8-17,10.4 c-9.9,6.4-20.1,13-31.7,16.8c-27.1,9-54.4,1.2-83.2-7.1c-5.1-1.5-10.3-3-15.5-4.3c-12.3-3.3-28.5-7-45.1-6.5 c-19.4,0.6-36.9,6.6-53.8,12.4c-8.3,2.9-17,5.8-25.7,8.1c-6.2,1.6-12.9,2.9-19.7,1.8c-11.4-1.9-20.1-10.3-26.4-17.4 c-3.5-4-7.1-8.4-11.2-13.8c-10.9-14.3-21.1-26.9-35.7-36.3c-3.5-2.2-7.7-4.6-12.7-5.1c-4.6-0.5-9.2,0.8-13.1,1.9 c-37.2,11.3-69,35.6-89.6,68.6l0.6,0.4c20.5-32.8,52.1-57.1,89.1-68.3c3.9-1.2,8.4-2.4,12.9-1.9c4.8,0.5,8.9,2.8,12.4,5 c14.5,9.3,24.7,21.8,35.6,36.1c4.2,5.5,7.7,9.9,11.2,13.8c6.3,7.2,15.1,15.7,26.8,17.7c1.8,0.3,3.6,0.4,5.4,0.4 C198.5,169.2,203.4,168.1,208.1,166.9z M203.1,176.8c8.5-2.9,16.9-6.5,25-10c17-7.4,34.7-15,54.6-16.1c16.8-0.9,33.2,3.2,45.6,6.9 c6,1.8,12,3.7,17.9,5.6c28.5,9.3,55.5,18.1,82.5,8.6c11.5-4,21.4-11.1,31-17.9c5.7-4,11.5-8.2,17.7-11.7c15.7-9,33.5-14.1,50.8-19.1 c6.6-1.9,13.5-3.9,20.2-6.1c32.3-10.6,53.9-24.9,64.2-42.6L612,74c-10.3,17.5-31.7,31.7-63.8,42.2c-6.6,2.2-13.5,4.1-20.1,6.1 c-17.3,5-35.2,10.1-50.9,19.2c-6.2,3.6-12.1,7.7-17.7,11.8c-9.5,6.8-19.4,13.8-30.8,17.8c-26.8,9.4-53.6,0.7-82.1-8.6 c-5.9-1.9-11.9-3.9-17.9-5.7c-12.5-3.7-28.9-7.8-45.9-6.9c-20.1,1.1-37.8,8.7-54.9,16.1c-8.1,3.5-16.5,7.1-25,10 c-6.3,2.1-13,3.9-19.9,2.8c-12-1.9-20.5-11.7-25.9-19c-3.9-5.3-7.4-10.6-10.3-15.2c-9.1-14.5-18.5-29.6-33.2-40.8 c-3.4-2.6-7.6-5.3-12.7-6c-4.7-0.6-9.3,0.8-13.3,2.1c-37.7,12.7-69,39-88.1,73.9l0.7,0.4c19-34.8,50.2-60.9,87.7-73.6 c3.9-1.3,8.5-2.7,13-2.1c4.9,0.6,9,3.3,12.3,5.8c14.6,11.1,24,26.1,33,40.6c2.9,4.6,6.4,10,10.3,15.2c5.5,7.4,14.1,17.4,26.4,19.3 c1.5,0.2,2.9,0.3,4.4,0.3C192.7,179.9,198.1,178.4,203.1,176.8z M198.2,186.6c8.4-3.5,16.6-7.8,24.5-11.9 c17.2-9,34.9-18.3,55.4-19.8c17.1-1.3,33.7,3.3,46.3,7.3c6.6,2.1,13.3,4.6,19.7,6.9c28.3,10.3,55.1,20.1,82,10.1 c11.5-4.3,21.1-11.7,30.4-19c5.8-4.5,11.8-9.1,18.1-13c16.3-9.9,35.2-14.8,53.5-19.6c6.2-1.6,12.7-3.3,18.9-5.2 c33.7-10,55.7-24.4,65.6-42.7l-0.7-0.4c-9.7,18.1-31.6,32.4-65.1,42.3c-6.2,1.8-12.6,3.5-18.9,5.2c-18.4,4.8-37.4,9.8-53.7,19.7 c-6.4,3.9-12.4,8.5-18.2,13c-9.3,7.2-18.9,14.6-30.2,18.9c-26.6,9.9-53.3,0.2-81.5-10.1c-6.5-2.3-13.1-4.8-19.7-6.9 c-12.6-4.1-29.3-8.7-46.6-7.4c-20.6,1.5-38.5,10.8-55.7,19.9c-7.9,4.1-16.1,8.4-24.5,11.9c-6,2.5-13,4.8-20.2,3.8 c-9.3-1.4-17.6-8.1-25.4-20.5c-3.6-5.8-6.7-11.6-9.3-16.6l-1-1.9c-8.3-16.1-16.1-31.3-29.7-43.4c-2.8-2.6-7.2-6-12.6-6.8 c-4.7-0.7-9.5,0.9-13.5,2.4c-38.3,14.3-69,42.4-86.7,79.2l0.7,0.3c17.6-36.6,48.2-64.6,86.3-78.8c4-1.5,8.6-3,13.2-2.3 c5.2,0.7,9.5,4.1,12.2,6.6c13.5,11.9,21.3,27.1,29.5,43.1l1,1.9c2.6,5,5.7,10.8,9.3,16.6c7.9,12.6,16.4,19.5,26,20.9 c1.2,0.2,2.4,0.2,3.6,0.2C187.2,190.8,193.1,188.7,198.2,186.6z M193.2,196.4c8.3-4.1,16.4-9,24.3-13.9c17.2-10.5,35.1-21.5,56-23.4 c13.6-1.3,28.1,1.1,47,7.8c7.1,2.5,14.3,5.4,21.2,8.2c28.3,11.4,55,22.1,81.8,11.5c11.4-4.5,20.8-12.4,30-20.1 c5.9-4.9,11.9-10,18.5-14.2c16.8-10.7,36.7-15.4,55.9-19.9c5.9-1.4,12-2.8,18-4.4c35.1-9.4,57.6-23.8,66.9-42.8l-0.7-0.3 c-9.2,18.8-31.6,33-66.4,42.4c-5.9,1.6-12,3-17.9,4.4c-19.3,4.6-39.3,9.3-56.2,20c-6.6,4.2-12.7,9.3-18.6,14.3 c-9.1,7.6-18.5,15.5-29.8,20c-26.5,10.4-53.1-0.2-81.2-11.5c-6.9-2.8-14.1-5.7-21.3-8.2c-19-6.7-33.5-9.1-47.3-7.8 c-21.1,2-39,13-56.3,23.5c-7.8,4.8-16,9.8-24.2,13.8c-6.4,3.1-13.2,5.9-20.5,4.9c-9.5-1.2-17.9-8.7-25-22.1 c-3.3-6.2-6.1-12.6-8.4-18l-1.5-3.5c-7.1-17-13.8-33.1-26.6-46.2c-3.1-3.1-7.3-6.8-12.6-7.6c-4.8-0.8-9.6,0.9-13.7,2.6 C46.5,121.1,15.4,152-0.6,190.4l0.7,0.3C16,152.5,47,121.8,85,106.6c4-1.6,8.7-3.3,13.3-2.5c5.1,0.8,9.2,4.4,12.2,7.4 c12.7,12.9,19.4,29,26.4,45.9l1.5,3.5c2.3,5.4,5.1,11.8,8.4,18c7.2,13.6,15.8,21.2,25.5,22.5c1,0.1,2,0.2,3.1,0.2 C181.7,201.5,187.9,199,193.2,196.4z M188.2,206.1c8.2-4.7,16.2-10.3,24-15.7c17.3-12.2,35.2-24.7,56.6-27.2 c13.9-1.6,28.6,0.9,47.7,8.2c7.5,2.9,15.2,6.2,22.5,9.4c28.2,12.4,54.9,24.1,81.7,13c11.4-4.7,20.7-13.1,29.6-21.2 c5.9-5.4,12-10.9,18.8-15.4c17.1-11.4,37.9-15.8,58-20.1c5.7-1.2,11.6-2.5,17.4-3.9c36.4-8.9,59.3-23.3,68.1-43l-0.7-0.3 c-8.6,19.1-32,33.9-67.6,42.5c-5.7,1.4-11.6,2.6-17.3,3.9c-20.2,4.3-41.1,8.7-58.3,20.2c-6.8,4.5-12.9,10.1-18.9,15.5 c-8.9,8.1-18.1,16.4-29.4,21.1c-26.5,11-53.1-0.7-81.2-13c-7.4-3.2-15-6.6-22.6-9.5c-19.2-7.3-34-9.9-48-8.3 c-21.6,2.5-39.6,15.1-57,27.3c-7.7,5.4-15.7,11-23.9,15.7c-6.1,3.4-13.2,6.8-20.7,5.9c-12.3-1.5-20.1-13.6-24.5-23.6 c-3-6.7-5.4-13.5-7.4-19.3c-0.6-1.8-1.2-3.6-1.8-5.4c-5.8-17.1-11.7-34.7-23.8-48.7c-2.7-3.2-7-7.5-12.5-8.5 c-4.9-0.9-9.8,1-13.9,2.8C44.4,125.2,13.9,158-0.7,198.4l0.7,0.3c14.6-40.1,45-72.7,83.5-89.4c4.1-1.8,8.8-3.6,13.5-2.7 c5.3,0.9,9.5,5.1,12.1,8.2c11.9,13.9,17.9,31.5,23.6,48.5c0.6,1.8,1.2,3.6,1.8,5.4c2,5.8,4.4,12.7,7.4,19.4 c4.5,10.1,12.5,22.5,25.1,24c0.9,0.1,1.7,0.2,2.6,0.2C176.4,212.3,182.8,209.2,188.2,206.1z M183.3,216c8.2-5.3,16.2-11.6,23.8-17.6 c17.3-13.7,35.3-27.9,57.1-30.9c24.5-3.3,48.7,8.2,72,19.3c28.3,13.5,55,26.2,81.9,14.5c11.4-4.9,20.5-13.8,29.3-22.4 c5.9-5.8,12.1-11.8,18.9-16.6c17.5-12.2,39.3-16.3,60.3-20.2c5.5-1,11.1-2.1,16.6-3.3c25.9-5.6,59-17.6,69.4-43.1l-0.7-0.3 c-10.3,25.2-43.1,37.1-68.9,42.6c-5.5,1.2-11.1,2.2-16.6,3.3c-21.1,3.9-42.9,8-60.6,20.3c-6.9,4.8-13.1,10.8-19,16.7 c-8.8,8.6-17.8,17.4-29.1,22.3c-26.6,11.5-53.2-1.2-81.3-14.5c-23.5-11.2-47.8-22.7-72.5-19.4c-22,3-40.1,17.2-57.5,31 c-7.7,6.1-15.6,12.3-23.8,17.6c-5.7,3.7-13.2,7.8-21,6.9c-13.3-1.5-20.8-16.4-24.1-25.1c-3.3-8.9-5.8-18.3-8.3-27.5 c-4.8-18.1-9.8-36.8-21.2-51.9c-2.6-3.5-6.8-8.2-12.5-9.3c-4.9-0.9-9.9,1.1-14.1,3c-19.2,8.9-36.9,22.4-51.1,38.9 C16.2,166.6,5.4,186.1-1,206.6l0.7,0.2c6.4-20.4,17.1-39.7,31.1-56C45.3,134.4,62.9,121,82,112.2c4.2-1.9,9-3.9,13.7-3 c4.2,0.8,8,3.7,12,9c11.4,14.9,16.3,33.6,21.1,51.6c2.4,9.2,4.9,18.6,8.3,27.5c3.3,8.9,10.9,24.1,24.7,25.6c0.7,0.1,1.5,0.1,2.2,0.1 C171.2,223.1,178,219.4,183.3,216z" fill="url(#a)"/></svg>