<?xml version="1.0" encoding="UTF-8"?><svg xmlns="http://www.w3.org/2000/svg" xmlns:xlink="http://www.w3.org/1999/xlink" height="588.3" preserveAspectRatio="xMidYMid meet" version="1.0" viewBox="13.1 6.3 581.5 588.3" width="581.5" zoomAndPan="magnify"><g id="change1_1"><path d="M215.8,495.2c-1.2,0-2.5,0-3.7-0.1c-21-1-32.9-11.5-37-21c-3.4-8-2.8-17-2-24.8c4-37.7,15.6-73.6,34.5-106.5 c6.4-11.2,13.7-22.1,20.8-32.6c8.5-12.6,17.2-25.6,24.4-39.1c8.1-15.2,14.6-31.6,20.8-47.4c6.3-16,12.8-32.6,21.1-48 c13.9-26,37-51.2,66.5-73.1C389.5,81.8,421.3,66,451,58.1l0.1,0.4l0-0.4c52.8-6.1,86.2-0.8,99.2,15.6c12.6,16,4.2,39-1.9,55.8 c-1.3,3.5-2.5,6.8-3.3,9.6c-3.2,10.6-10,20.4-16.6,29.8c-10,14.3-19.5,27.9-16.9,44c2.1,13.1-1.2,22.4-4.7,32.2 c-2.1,6-4.4,12.2-5.7,19.9c-4.5,26.3-29.8,41.9-44.5,48.9c-8.6,4.1-17.7,7.4-26.5,10.7c-12.4,4.6-25.2,9.3-36.7,16.1 c-28,16.5-47.1,43.9-65.6,70.5c-4.9,7-9.9,14.2-15,21.1C291.4,461.2,257.4,495.2,215.8,495.2z M451.2,58.8L451.2,58.8 c-29.6,7.9-61.3,23.6-89.4,44.3c-29.5,21.8-52.4,47-66.3,72.8c-8.3,15.4-14.8,31.9-21.1,47.9c-6.2,15.8-12.7,32.2-20.8,47.5 c-7.2,13.6-16,26.6-24.5,39.2c-7.1,10.5-14.4,21.4-20.8,32.6c-18.9,32.8-30.4,68.6-34.5,106.2c-0.8,7.7-1.4,16.6,2,24.4 c4,9.3,15.7,19.6,36.3,20.6c1.2,0.1,2.4,0.1,3.7,0.1c41.2,0,75.1-33.8,96.5-62.6c5.1-6.9,10.1-14.1,15-21.1 c18.5-26.6,37.7-54.1,65.9-70.7c11.6-6.8,24.4-11.6,36.8-16.2c8.8-3.3,17.8-6.6,26.4-10.7c14.6-6.9,39.7-22.4,44.1-48.3 c1.3-7.8,3.6-14,5.7-20.1c3.6-10.1,6.7-18.9,4.6-31.8c-2.7-16.4,6.9-30.1,17-44.5c6.6-9.4,13.3-19.1,16.5-29.6 c0.8-2.8,2.1-6.1,3.3-9.6c6.1-16.6,14.4-39.4,2-55.1C536.9,57.9,503.7,52.8,451.2,58.8z M214.3,498.5c-2.9,0-5.8-0.1-8.8-0.4 c-21.3-2.2-33.6-13.3-38-22.9c-3.7-8.1-3.6-17.2-3.1-25.1c1.1-19.1,4.3-38.1,9.7-56.5c5.5-18.4,13-36.3,22.3-53.1 c6.6-11.9,14.2-23.4,21.6-34.6c8-12.2,16.3-24.8,23.4-37.8c7.4-13.7,13.5-28.3,19.4-42.4c7.3-17.5,14.9-35.5,25-51.9 c7-11.3,16-21.7,27.4-33.8c8.7-9.2,16.2-16.5,23.5-22.9c16.1-14.1,33.9-26.4,52.9-36.3c23.1-12.2,47-20.4,68.9-23.7l0,0.2l0-0.2 c45.2-4.1,75.3,0.8,89.6,14.6c7,6.8,10.2,15.7,9.6,26.7c-0.7,12.4-6.1,25.4-10.4,35.8c-1.2,2.9-2.4,5.7-3.3,8.1 c-3.2,8.5-8.3,16.3-13,22.7c-1.4,2-2.8,3.9-4.3,5.9c-10.5,14.2-20.4,27.7-18.6,43.7c1.4,12.7-2,21.9-5.6,31.6 c-2.3,6.1-4.6,12.4-6.1,20.3c-2.1,11.2-10.6,32.7-43.2,50.7c-8.3,4.6-17.1,8.5-25.5,12.3c-11.7,5.2-23.8,10.6-34.8,17.8 c-9.9,6.6-18.9,14.4-27,23.1c-13,13.8-24.6,29.7-35.7,45.2c-5.9,8.2-12,16.7-18.3,24.7c-7.7,10-16.3,19.3-25.7,27.7 c-17.8,15.6-36.5,25.4-55.7,29C225.1,498,219.7,498.5,214.3,498.5z M458.6,57.9L458.6,57.9c-21.8,3.3-45.6,11.4-68.6,23.6 c-18.9,10-36.7,22.1-52.7,36.2c-7.3,6.4-14.7,13.7-23.4,22.9c-11.3,12-20.3,22.3-27.3,33.6c-10,16.3-17.6,34.3-24.9,51.8 c-5.9,14.1-12,28.7-19.5,42.4c-7.1,13.1-15.4,25.7-23.4,37.9c-7.3,11.2-14.9,22.7-21.6,34.5c-9.3,16.7-16.8,34.6-22.3,52.9 c-5.4,18.3-8.6,37.2-9.7,56.3c-0.4,7.8-0.6,16.8,3,24.7c6.6,14.4,23.7,21,37.4,22.5c8.2,0.8,16.5,0.5,24.6-1.1 c19-3.6,37.6-13.3,55.3-28.8c9.3-8.3,18-17.6,25.6-27.6c6.2-8,12.3-16.5,18.3-24.7c11.2-15.5,22.7-31.5,35.8-45.3 c8.1-8.7,17.2-16.6,27.2-23.2c11-7.3,23.2-12.7,34.9-17.9c8.5-3.8,17.2-7.7,25.5-12.2c13.9-7.7,37.9-24.4,42.8-50.2 c1.5-7.9,3.9-14.2,6.2-20.4c3.7-10,7-18.7,5.6-31.2c-1.8-16.3,8.7-30.5,18.8-44.2c1.4-1.9,2.9-3.9,4.3-5.8 c4.6-6.4,9.8-14.1,12.9-22.5c0.9-2.4,2.1-5.2,3.3-8.2c4.3-10.4,9.6-23.3,10.4-35.6c0.6-10.7-2.5-19.5-9.3-26.1 C533.4,58.7,503.5,53.9,458.6,57.9z M213.4,502.1c-4.8,0-9.7-0.4-14.5-1.1c-18.3-2.9-32.9-12.2-39.1-24.8c-4-8.2-4.3-17.4-4.2-25.4 c0.1-19.5,2.7-39,7.7-57.8c5.1-19,12.5-37.4,21.9-54.7c6.9-12.9,15-25.5,22.9-37.6c7.4-11.5,15-23.3,21.7-35.5 c6.8-12.4,12.6-25.5,18.2-38.2c8.3-18.7,16.8-38,28.6-54.9c7.3-10.4,16.5-19.5,26.3-29c1.7-1.6,3.4-3.3,5-4.9l2.7-2.7 c7.3-7.2,14.9-14.6,22.9-21.5c17.5-15,36.9-27.6,57.7-37.5c25.4-12.2,51.1-19.2,74.4-20.3l0,0c42.2-2.7,70.5,3.2,84,17.5 c7.2,7.6,10,17.4,8.6,29.2c-1.5,12.6-7.5,25.4-12.3,35.8c-1.2,2.5-2.3,4.9-3.2,7c-3.6,8.4-9.3,16.2-13.8,22.1 c-1.3,1.7-2.7,3.5-4,5.2c-10.6,13.5-21.5,27.5-20.6,43.6c0.7,12.3-2.8,21.3-6.5,30.9c-2.4,6.2-4.9,12.7-6.6,20.6 c-2.8,13.6-12.4,33.7-41.9,52.5c-8,5.1-16.5,9.6-24.6,13.9c-11,5.8-22.4,11.8-32.8,19.5c-9.5,7.1-18.4,15.3-26.3,24.2 c-11.6,12.8-22.3,27.2-32.6,41.1c-7.2,9.7-14.7,19.8-22.4,29.2c-8.2,10.2-17.5,19.5-27.6,27.6c-18.3,14.5-38,23.1-58.7,25.4 C220.8,501.9,217.1,502.1,213.4,502.1z M465.9,57L465.9,57c-23.2,1.1-48.8,8.1-74.2,20.2c-20.7,9.9-40.1,22.5-57.5,37.4 c-8,6.9-15.6,14.3-22.9,21.5l-2.7,2.7c-1.7,1.7-3.4,3.3-5,4.9c-9.8,9.5-19,18.5-26.2,28.9c-11.7,16.8-20.3,36.1-28.5,54.7 c-5.6,12.7-11.4,25.8-18.3,38.2c-6.7,12.2-14.3,24-21.7,35.5c-7.8,12.1-15.9,24.7-22.9,37.6c-9.4,17.2-16.7,35.6-21.8,54.5 c-5,18.8-7.6,38.2-7.7,57.6c-0.1,7.9,0.2,17,4.1,25c6.1,12.4,20.5,21.5,38.5,24.4c8.4,1.3,16.9,1.5,25.3,0.5 c20.5-2.3,40.1-10.8,58.3-25.3c10.1-8.2,19.3-17.4,27.5-27.5c7.7-9.4,15.2-19.5,22.4-29.2c10.3-13.9,21-28.4,32.7-41.1 c8-8.9,16.8-17.1,26.4-24.3c10.5-7.7,21.9-13.7,32.9-19.6c8.2-4.3,16.6-8.8,24.6-13.9c16.1-10.3,36.4-27.7,41.5-52 c1.7-8,4.2-14.4,6.6-20.7c3.7-9.5,7.2-18.5,6.5-30.6c-1-16.3,10.1-30.4,20.7-44.1c1.3-1.7,2.7-3.4,4-5.2 c4.5-5.9,10.1-13.6,13.7-21.9c0.9-2.1,2-4.5,3.2-7c4.8-10.3,10.8-23.1,12.3-35.6c1.4-11.5-1.4-21.1-8.4-28.5 C535.9,60.2,507.9,54.4,465.9,57z M213.3,506c-7,0-14-0.7-20.9-2.1c-18.8-4-33.5-13.7-40.1-26.7c-4.1-8-4.9-17.1-5.3-25.7 c-0.8-19.9,1.1-39.8,5.7-59.1c4.8-19.6,12-38.5,21.5-56.3c7.3-14,15.9-27.5,24.2-40.7c6.8-10.7,13.8-21.8,20.1-33.1 c6.3-11.2,11.8-23,17.1-34.4c9.2-19.7,18.8-40.1,32.2-57.4c7.2-9.3,16.1-17.1,25.5-25.3c3.2-2.8,6.5-5.7,9.8-8.7 c2.8-2.6,5.7-5.3,8.5-7.9c6.2-5.8,12.6-11.8,19.3-17.5c18.9-15.8,39.9-28.9,62.5-38.7c27.7-12.1,55.4-18,80-16.9l0-0.1 c39.4-1.4,65.8,5.4,78.5,20.2c7.2,8.4,9.8,19.4,7.4,31.8c-2.4,13-9.6,26.6-14.8,36.5c-1,1.8-1.9,3.5-2.7,5.1 c-4.1,8.1-10,15.7-14.6,21.4c-1.2,1.4-2.4,2.9-3.6,4.3c-11.2,13.5-22.7,27.4-22.6,43.6c0,11.8-3.6,20.7-7.4,30.2 c-2.6,6.4-5.3,13-7.1,21c-3.1,13.5-12.6,33.9-40.5,54.3c-7.7,5.6-15.8,10.7-23.7,15.6c-10.3,6.4-21,13-30.9,21.1 c-9.2,7.6-17.8,16.1-25.6,25.2c-10,11.5-19.6,24.1-28.9,36.3c-8.7,11.5-17.8,23.4-27.2,34.4c-9.7,11.3-19.6,20.6-29.5,27.7 c-18.8,13.5-39.5,20.8-61.6,21.8C216.7,506,215,506,213.3,506z M467.5,56c-23,0-48.4,5.8-73.9,17c-22.5,9.8-43.5,22.8-62.3,38.6 c-6.7,5.6-13.1,11.6-19.3,17.5c-2.8,2.6-5.7,5.3-8.5,7.9c-3.3,3-6.6,5.9-9.8,8.7c-9.4,8.2-18.2,16-25.4,25.2 c-13.3,17.2-22.4,36.7-32.1,57.3c-5.4,11.4-10.9,23.2-17.2,34.5c-6.3,11.3-13.3,22.4-20.1,33.1c-8.3,13.1-16.9,26.7-24.2,40.6 c-9.4,17.8-16.6,36.7-21.4,56.2c-4.6,19.3-6.5,39.1-5.7,58.9c0.3,8.5,1.2,17.5,5.2,25.4c6.6,12.8,21,22.4,39.6,26.3 c8.5,1.8,17.2,2.4,25.9,2c21.9-1,42.5-8.3,61.2-21.7c9.8-7,19.7-16.3,29.4-27.5c9.4-11,18.5-22.9,27.2-34.4 c9.3-12.2,18.9-24.9,28.9-36.4c7.8-9.1,16.5-17.6,25.7-25.3c10-8.1,20.6-14.7,31-21.2c7.9-4.9,16-9.9,23.7-15.6 c27.7-20.3,37.1-40.5,40.2-53.9c1.8-8.1,4.5-14.7,7.1-21.2c3.8-9.4,7.4-18.3,7.3-29.9c-0.1-16.4,11.6-30.5,22.8-44.1 c1.2-1.4,2.4-2.9,3.6-4.3c4.6-5.7,10.4-13.2,14.6-21.2c0.8-1.6,1.7-3.3,2.7-5.1c5.2-9.9,12.3-23.4,14.8-36.3 c2.3-12.2-0.2-23-7.3-31.2c-12.6-14.6-38.8-21.3-77.9-20l0-0.1l0,0.2C471.4,56.1,469.5,56,467.5,56z M277.1,492.3 c10.4-6.8,21-16.1,31.4-27.7c11.5-12.8,22.4-26.9,32.9-40.6c7.9-10.2,16-20.7,24.3-30.5c7.6-9.3,16-18.1,24.9-26.3 c9.4-8.4,19.3-15.6,28.9-22.6c7.6-5.5,15.4-11.2,22.9-17.4c21.1-17.7,34.3-36.5,39.1-56.1c2-8.2,4.9-15,7.6-21.5 c3.9-9.3,7.6-18.1,8.2-29.4c0.8-16.1,13-30,24.7-43.5c1.1-1.2,2.1-2.4,3.2-3.6c5.8-6.4,11-13.4,15.5-20.7c0.7-1.1,1.4-2.3,2.1-3.6 c5.9-10,14-23.6,17.3-36.9c2.3-9.3,3.2-22.8-6.1-34.6c-11.8-15.1-36.1-22.8-72.2-22.8c-0.3,0-0.7,0-1,0l0,0.8c0.3,0,0.7,0,1,0 c35.9,0,60,7.6,71.6,22.5c9.1,11.6,8.2,24.9,6,34c-3.3,13.2-11.4,26.8-17.3,36.7c-0.7,1.2-1.4,2.4-2.1,3.6 c-4.5,7.3-9.7,14.2-15.4,20.6c-1,1.2-2.1,2.4-3.2,3.6c-11.8,13.5-24,27.5-24.8,43.9c-0.6,11.2-4.2,19.9-8.1,29.1 c-2.8,6.6-5.6,13.4-7.7,21.6c-4.8,19.4-17.9,38.1-38.9,55.7c-7.4,6.2-15.2,11.9-22.8,17.4c-9.6,7-19.6,14.2-29,22.7 c-8.9,8.2-17.3,17.1-25,26.4c-8.3,9.8-16.4,20.4-24.3,30.6c-10.5,13.6-21.4,27.7-32.9,40.5c-10.4,11.6-20.9,20.8-31.3,27.5 c-19.1,12.5-41.3,18.7-64.2,18.1c-9-0.2-17.9-1.4-26.6-3.6c-18.9-4.9-33.7-15.2-40.7-28.2c-4.3-8.1-5.5-17.1-6.2-25.7 c-1.7-20.2-0.5-40.4,3.7-60.2c4.5-20.1,11.5-39.5,21-57.8c7.6-15.1,16.8-29.8,25.6-44c6.1-9.9,12.5-20.1,18.3-30.4 c5.7-10.1,10.9-20.6,15.9-30.8c10.7-21.7,20.8-42.1,35.8-59.7c7.4-8.7,16.3-15.7,25.7-23.2c4.4-3.5,9-7.1,13.4-11 c4.2-3.7,8.5-7.6,12.7-11.3c5.6-5.1,11.4-10.3,17.3-15.3c20.2-16.7,42.7-30.1,67-39.8c29.9-12,59.4-16.7,85.2-13.5l0.1-0.7 c-26-3.2-55.5,1.5-85.6,13.6c-24.4,9.8-47,23.2-67.2,39.9c-6,4.9-11.8,10.2-17.4,15.3c-4.1,3.8-8.4,7.7-12.7,11.3 c-4.4,3.8-9,7.4-13.4,11c-9.5,7.5-18.4,14.6-25.8,23.3c-15,17.6-25.1,38.1-35.9,59.8c-5,10.2-10.2,20.7-15.9,30.8 c-5.8,10.3-12.1,20.5-18.3,30.3c-8.8,14.2-18,29-25.6,44.1c-9.4,18.3-16.5,37.8-21,58c-4.2,19.9-5.5,40.2-3.7,60.5 c0.7,8.7,2,17.8,6.3,26c7.1,13.2,22.1,23.6,41.2,28.6c8.7,2.2,17.7,3.5,26.8,3.6c1.1,0,2.2,0,3.3,0 C237.6,510.5,258.7,504.3,277.1,492.3z M217.4,515.4c-3.6,0-7.2-0.2-10.9-0.5c-9.3-0.7-18.5-2.5-27.4-5.2 c-11.3-3.5-31.9-12.1-42.2-30.5c-4.7-8.3-6.3-17.5-7.4-26.3c-2.7-20.6-2.1-41.4,1.7-61.8c3.7-19.2,10.6-39.2,20.6-59.6 c8.1-16.6,18-32.7,27.5-48.3c5.3-8.7,10.9-17.8,16-26.8c5.1-8.9,9.9-18.1,14.5-27c11.8-22.9,23-44.5,39.8-62.4 c7.8-8.4,17-15,26.7-22c5.4-3.9,11.1-8,16.5-12.4c5.3-4.3,10.5-9,15.6-13.5c5.4-4.8,10.9-9.7,16.6-14.3c21.6-17.6,45.9-31.4,72-41.1 c32.2-12,63.8-15.5,91.1-10.2c33.6,1,57.2,9.7,68.1,25.2c7.3,10.3,8.9,23.6,4.5,37.6c-4.5,14.2-13.9,28.2-20.8,38.4l-0.6,0.9 c-4.9,7.1-10.4,13.8-16.3,20l-2.5,2.7c-12.4,13.4-25.2,27.3-27,43.6c-1.2,10.7-4.9,19.4-8.9,28.5c-3,6.8-6,13.8-8.2,22.2 c-5.1,19.4-17.8,38.8-37.7,57.9c-7.3,7-15,13.4-22.4,19.7c-8.8,7.4-17.8,15-26.5,23.7c-8.5,8.7-16.6,17.9-24.2,27.4 c-6,7.4-12.1,15.2-18,22.8c-12.8,16.4-26,33.4-40.3,48.6c-11.1,11.9-22.4,21.2-33.3,27.7C257.1,510.4,238.1,515.4,217.4,515.4z M462.2,52c-20.5,0-42.5,4.2-64.9,12.6c-26.1,9.6-50.2,23.4-71.8,40.9c-5.7,4.6-11.2,9.6-16.6,14.3c-5.1,4.5-10.3,9.2-15.6,13.5 c-5.4,4.4-11.1,8.5-16.5,12.5c-9.7,7-18.9,13.6-26.6,21.9c-16.6,17.8-27.8,39.4-39.6,62.2c-4.6,8.9-9.4,18.2-14.5,27.1 c-5.2,9-10.7,18.1-16,26.8c-9.5,15.6-19.4,31.7-27.5,48.2c-9.9,20.3-16.8,40.3-20.5,59.4c-3.8,20.3-4.4,41-1.7,61.5 c1.1,8.7,2.7,17.8,7.3,26c10.2,18.1,30.6,26.7,41.8,30.1c8.8,2.7,18,4.4,27.2,5.1c24.8,2,47.4-2.9,67.1-14.5 c10.9-6.4,22.1-15.7,33.2-27.5c14.2-15.2,27.5-32.2,40.3-48.6c5.9-7.6,12-15.4,18-22.8c7.5-9.5,15.7-18.7,24.2-27.4 c8.7-8.7,17.8-16.3,26.6-23.7c7.4-6.2,15.1-12.7,22.4-19.6c19.8-18.9,32.5-38.3,37.5-57.5c2.2-8.4,5.3-15.5,8.3-22.3 c4-9.1,7.7-17.6,8.9-28.2c1.8-16.5,14.7-30.5,27.1-44l2.5-2.7c5.9-6.2,11.3-12.9,16.2-20l0.6-0.9c6.8-10.2,16.2-24.1,20.7-38.2 c4.3-13.7,2.7-26.8-4.4-36.9c-10.8-15.3-34.2-23.9-67.6-24.9l-0.1,0C479.8,52.8,471.1,52,462.2,52z M219.8,520.9 c-6.2,0-12.6-0.5-19.2-1.4c-9.5-1.3-18.9-3.6-28-6.7c-25.4-9-37.6-22.6-43.3-32.4c-5-8.5-7-17.8-8.5-26.6 c-3.6-20.9-3.7-42.2-0.3-63.1c3.3-19.4,10-40,20.1-61.2c8.7-18.5,19.6-36.4,30-53.7c4.3-7.2,8.8-14.6,13.1-22 c4.4-7.6,8.7-15.4,12.8-23c13.1-24.1,25.4-47,44-65.2c8.2-8.1,17.8-14.4,27.8-21.1c6.4-4.2,13-8.6,19.3-13.5 c6.3-4.9,12.4-10.3,18.4-15.5c5.2-4.5,10.5-9.2,15.9-13.6c23-18.5,48.9-32.7,76.8-42.3c34.5-11.9,67.9-14.3,96.7-6.8 c31.2,2.2,53.1,11.7,63.2,27.5c7.4,11.5,8.4,25.9,2.8,40.6c-5.7,14.9-17.1,30-23.3,38.2c-5.3,6.8-11.1,13.3-17.1,19.3l-1.6,1.6 c-13.1,13.4-26.7,27.4-29.5,43.9c-1.7,10.2-5.5,18.5-9.6,27.3c-3.2,7.1-6.5,14.4-9,23c-5.5,19.4-17.4,38.9-36.4,59.7 c-7.2,7.8-14.8,15.2-22.1,22.3c-7.9,7.7-16,15.6-23.9,24.3c-8.2,9.1-16.1,19-23.5,28.4c-3,3.8-6,7.7-9,11.6 c-15.9,20.5-32.3,41.7-50.4,60.3c-12.1,12.4-23.6,21.5-35.2,27.7C255.7,516.7,238.5,520.9,219.8,520.9z M460.8,49.2 c-19.6,0-40.4,3.7-61.7,11c-27.9,9.5-53.6,23.7-76.6,42.1c-5.4,4.4-10.8,9-15.9,13.5c-6,5.2-12.2,10.6-18.4,15.5 c-6.3,4.9-13,9.3-19.4,13.6c-10,6.6-19.5,12.9-27.7,21c-18.4,18.2-30.8,41-43.8,65.1c-4.1,7.6-8.3,15.4-12.8,23 c-4.3,7.4-8.8,14.8-13.1,22c-10.5,17.3-21.3,35.2-30,53.7c-10,21.2-16.8,41.7-20,61c-3.4,20.9-3.3,42,0.3,62.9 c1.5,8.7,3.5,17.9,8.4,26.3c5.7,9.7,17.7,23.1,42.9,32c9,3.2,18.4,5.4,27.9,6.7c26.1,3.7,49.7,0,70-11c11.5-6.2,23-15.2,35.1-27.5 c18.1-18.6,34.5-39.8,50.3-60.3c3-3.9,6-7.7,9-11.6c7.3-9.4,15.3-19.4,23.5-28.5c7.9-8.7,16.1-16.7,23.9-24.3 c7.3-7.1,14.9-14.5,22.1-22.3c18.9-20.7,30.8-40.1,36.2-59.4c2.5-8.7,5.8-16,9-23.1c4-8.8,7.8-17.1,9.5-27.2 c2.8-16.7,16.5-30.7,29.7-44.3l1.6-1.6c6.1-6,11.8-12.5,17.1-19.3c6.1-8.1,17.6-23.1,23.2-38c5.5-14.5,4.5-28.7-2.7-40 c-10-15.7-31.7-25.1-62.7-27.2l-0.1,0C484.5,50.6,472.9,49.2,460.8,49.2z M221.9,526.8c-8.7,0-17.8-0.9-27.3-2.8 c-9.8-1.9-19.4-4.7-28.7-8.3c-14.2-5.7-33.4-16.2-44.3-34.3c-5.3-8.7-7.8-18.5-9.6-26.9c-4.6-21.3-5.3-42.9-2.3-64.5 c2.9-19.7,9.5-40.9,19.7-62.9c9.5-20.7,21.5-40.7,33.1-60c3.2-5.4,6.5-10.9,9.8-16.4c3.6-6.1,7.1-12.4,10.5-18.4 c14.5-25.7,28.1-49.9,48.7-68.7c8.8-8,18.7-14.1,29.3-20.5c7.2-4.4,14.7-9,21.8-14.2c7.2-5.3,14.1-11.3,20.9-17.1 c5.1-4.4,10.3-8.9,15.7-13.1c24.5-19.4,51.9-34,81.6-43.5C437,43.6,473.3,42.4,503,51.8l0,0c36.6,4.1,52,18.5,58.5,29.8 c7.2,12.6,7.6,28.5,0.8,43.7c-6.1,13.8-16.7,27-25.2,37c-4.7,5.5-10.2,11.2-17.9,18.7l-0.3,0.3c-14,13.6-28.5,27.6-32.4,44.4 c-2.2,9.5-6,17.5-10.1,26c-3.5,7.4-7.1,15-9.8,24c-5.9,19.6-17,39.1-35,61.5c-7.2,9-14.8,17.5-22.2,25.7c-6.9,7.7-14,15.7-21,24.2 c-6.7,8.1-13.1,16.6-19.8,25.6l-2.9,3.9c-19.4,25.8-38.6,50.7-60.5,72.3c-12.9,12.7-25,21.8-37.1,27.7 C254.2,523.4,238.7,526.8,221.9,526.8z M460,46.3c-18.9,0-39,3.2-59,9.7c-29.6,9.5-57,24-81.4,43.4c-5.3,4.2-10.6,8.8-15.6,13.1 c-6.8,5.8-13.7,11.9-20.9,17.2c-7.1,5.3-14.6,9.9-21.9,14.3c-10.5,6.4-20.5,12.5-29.2,20.4c-20.4,18.7-34.1,42.9-48.5,68.5 c-3.4,6.1-6.9,12.3-10.5,18.4c-3.2,5.5-6.5,11-9.8,16.4c-11.6,19.3-23.6,39.3-33,60c-10.1,21.9-16.7,43-19.6,62.7 c-3,21.4-2.3,43,2.3,64.2c1.7,8.3,4.2,18,9.5,26.6c10.9,17.9,29.9,28.3,44,34c9.2,3.6,18.8,6.4,28.5,8.3c27.5,5.4,52,2.9,73-7.4 c12.1-5.9,24.1-14.9,37-27.5c21.8-21.5,41-46.4,60.4-72.2l2.9-3.9c6.8-9,13.1-17.5,19.8-25.7c7-8.6,14.1-16.5,21-24.2 c7.3-8.2,14.9-16.7,22.2-25.7c17.9-22.3,29-41.7,34.9-61.2c2.7-9,6.4-16.7,9.9-24.1c4-8.5,7.8-16.5,10-25.9 c4-17.1,18.6-31.2,32.7-44.8l0.3-0.3c7.7-7.4,13.2-13.1,17.9-18.6c8.5-10,19-23.1,25.1-36.8c6.6-15,6.3-30.6-0.8-43 c-9.2-16.1-29.3-26.3-58.1-29.5l0-0.4l-0.1,0.4C489.6,48.3,475.2,46.3,460,46.3z M223.9,533.1c-11,0-22.7-1.5-35.2-4.6 c-10-2.4-19.9-5.7-29.3-9.9c-14.3-6.3-33.8-17.7-45.4-36.1c-5.7-9-8.5-18.8-10.6-27.2c-5.5-21.6-7-43.7-4.3-65.8 c2.5-20.2,8.8-41.3,19.2-64.5c10.6-23.7,24.2-46.5,37.5-68.7c1.7-2.8,3.4-5.6,5-8.4c2.6-4.4,5.2-8.9,7.8-13.2 c16-27.4,31.1-53.3,53.9-72.6c9.2-7.9,19.5-13.7,30.5-19.9c8.2-4.6,16.6-9.4,24.5-15.1c7.9-5.7,15.6-12.2,23-18.5 c5.1-4.3,10.3-8.8,15.7-13c25.9-20.2,54.9-35.3,86.4-44.6c38.5-11.5,76.8-11.5,107.8,0l0,0c34,5.4,48.2,20.4,54.2,32.1 c7.1,14,6.7,31-1.3,46.8c-7.1,14-18.9,27.2-27.2,35.8c-6.1,6.5-12.9,12.7-18.8,18c-13,11.8-29.2,26.5-34.3,43.8 c-2.6,8.8-6.4,16.4-10.4,24.4c-3.9,7.8-7.9,15.9-10.9,25.3c-8.1,25.5-23.1,48.3-33.7,63.3c-7.6,10.8-15.2,20.6-23.3,31 c-5.5,7.1-11.3,14.5-17,22.2c-4.2,5.7-8.4,11.5-12.7,17.6c-3,4.2-6.1,8.6-9.3,12.9c-22.5,31-42,54.1-61.5,72.7 c-13.7,13-26.4,22.1-39.1,27.7C252.4,530.3,238.8,533.1,223.9,533.1z M459.3,43c-18.2,0-37.3,2.9-56.5,8.6 C371.4,61,342.5,76,316.7,96.1c-5.3,4.2-10.6,8.7-15.7,13c-7.4,6.3-15.1,12.9-23.1,18.5c-8,5.7-16.4,10.5-24.6,15.2 c-10.9,6.2-21.2,12-30.4,19.8c-22.7,19.2-37.8,45.1-53.7,72.4c-2.5,4.3-5.2,8.8-7.8,13.2c-1.7,2.8-3.4,5.6-5,8.4 c-13.2,22.1-26.9,45-37.4,68.6c-10.3,23.2-16.6,44.2-19.1,64.3c-2.6,22-1.2,44.1,4.3,65.5c2.1,8.3,4.9,18.1,10.5,27 c11.5,18.3,30.9,29.6,45.1,35.9c9.4,4.1,19.2,7.4,29.2,9.8c29.2,7.2,54,6,75.9-3.8c12.5-5.6,25.2-14.6,38.8-27.5 c19.5-18.5,39-41.6,61.4-72.6c3.2-4.3,6.3-8.7,9.3-12.9c4.4-6.1,8.5-11.9,12.7-17.6c5.7-7.7,11.5-15.1,17-22.2 c8.1-10.4,15.7-20.3,23.3-31c10.5-14.9,25.4-37.6,33.5-63c3-9.5,7-17.6,10.9-25.4c4-8,7.8-15.6,10.3-24.3 c5.2-17.5,21.5-32.3,34.5-44.2c5.8-5.3,12.6-11.5,18.7-18c8.2-8.6,20-21.7,27-35.7c7.9-15.6,8.4-32.4,1.3-46.1 c-5.9-11.5-20-26.3-53.6-31.7l0.1-0.4l-0.2,0.4C494.7,45.9,477.5,43,459.3,43z M224.9,539.8c-13,0-27.1-2.2-42.2-6.7 c-10.2-3-20.3-6.8-29.9-11.4c-21.1-10.2-36.7-23-46.5-38.1c-6.1-9.3-9.4-19.6-11.7-27.5c-6.4-21.9-8.5-44.5-6.2-67.2 c2.2-20.3,8.3-42,18.7-66.1c12.1-28,28.8-55.6,42.1-77.8c1.4-2.4,2.9-4.8,4.3-7.2c17.7-29.5,34.4-57.4,59.8-77.4 c9.7-7.7,20.4-13.3,31.8-19.3c9.1-4.8,18.5-9.7,27.2-15.8c8.7-5.9,17-12.9,25-19.7c5.1-4.3,10.5-8.8,15.9-13 c27.3-21.1,57.9-36.6,91.1-45.8c40.7-11.4,81-10.2,113.4,3.4l0,0c31.4,6.6,44.4,22.3,49.8,34.3c6.8,15.2,5.5,33.9-3.7,49.9 c-8,14-20.4,26.5-29.1,34.7c-6.1,5.8-13,11.7-19.6,17.3c-14.9,12.8-30,26.7-36,43c-2.9,7.9-6.6,15-10.5,22.5 c-4.3,8.3-8.8,17-12.2,26.9c-8.4,25-21.7,47.9-32.3,65.1c-8.8,14.2-17.7,27.4-27.2,41.3c-3.4,5-6.8,10.1-10.3,15.3 c-2.2,3.3-4.4,6.6-6.7,10c-4.7,7.1-9.5,14.4-14.6,21.6c-20.1,28.7-41.2,53.3-62.6,73.1c-14.5,13.3-27.9,22.4-41,27.7 C250.6,537.5,238.3,539.8,224.9,539.8z M459,39.6c-17.5,0-35.9,2.6-54.3,7.7C371.5,56.6,341,72,313.8,93.1 c-5.4,4.2-10.7,8.7-15.9,13c-8,6.8-16.4,13.8-25.1,19.8c-8.8,6.1-18.2,11-27.3,15.9c-11.3,6-22,11.6-31.7,19.3 c-25.2,20-41.9,47.8-59.6,77.2c-1.4,2.4-2.9,4.8-4.3,7.2c-13.4,22.2-30,49.8-42.1,77.7c-10.4,24.1-16.5,45.6-18.7,65.9 c-2.3,22.6-0.2,45.1,6.2,66.9c2.2,7.8,5.6,18,11.6,27.3c9.7,15,25.2,27.7,46.2,37.8c9.6,4.6,19.6,8.4,29.8,11.4 c30.5,9,56.3,9,78.8-0.3c13-5.3,26.3-14.3,40.7-27.5c21.4-19.7,42.4-44.2,62.5-72.9c5.1-7.3,9.9-14.6,14.6-21.6 c2.2-3.4,4.5-6.7,6.7-10c3.5-5.2,6.9-10.3,10.3-15.3c9.4-13.9,18.4-27.1,27.1-41.3c10.6-17.1,23.8-40,32.2-64.9 c3.4-10,7.9-18.7,12.2-27c3.9-7.5,7.5-14.5,10.4-22.4c6-16.5,21.2-30.5,36.2-43.4c6.5-5.6,13.4-11.5,19.5-17.3 c8.6-8.2,21-20.6,28.9-34.5c9-15.9,10.4-34.3,3.7-49.3c-5.3-11.8-18.2-27.3-49.4-33.9l0-0.1l0,0C500,43.3,480,39.6,459,39.6z M225.6,546.6c-14.9,0-31.1-3-48.8-9.1c-10.5-3.5-20.7-7.9-30.6-13c-21.2-11.1-37.2-24.5-47.5-40c-5-7.6-9.1-16.4-12.8-27.8 c-7.5-23-10.3-46-8.3-68.5c1.8-20.6,7.8-42.8,18.3-67.8c11.8-28.1,27.7-55.4,41.8-78.4c18.8-30.7,38.2-62.5,66.6-83.4 c10.3-7.6,22-13.4,33.3-19c9.9-4.9,20.1-10,29.7-16.3c9.4-6.2,18.3-13.7,27-20.9c5.2-4.4,10.6-8.9,16.1-13.1 c28.7-22,61-37.9,95.9-47.1c43-11.3,85.2-8.9,118.9,6.7l0,0c29.1,7.8,41,24.2,45.8,36.6c6.5,16.7,4.2,36.5-6.3,53 c-8.8,13.8-21.9,25.8-31,33.5c-5,4.3-10.4,8.6-16,13.1c-1.5,1.2-3,2.4-4.4,3.6c-14.3,11.6-30.2,25.3-37.6,42.2 c-3,6.9-6.6,13.5-10.1,20c-4.9,9.1-10,18.4-13.9,29.2c-8.7,24.4-20.5,47.5-30.9,66.8c-11.5,21.4-23.5,41.4-34.6,59.9l-0.7,1.2 c-6.3,10.3-12.7,20.9-19.9,31.5c-18.1,27-39.5,51.7-63.7,73.5c-15.5,13.8-29.1,22.6-42.9,27.7C248.7,544.7,237.6,546.6,225.6,546.6z M459,36.1c-17,0-34.7,2.3-52.5,7c-34.9,9.2-67.1,25-95.7,46.9c-5.5,4.2-10.8,8.7-16.1,13.1c-8.7,7.2-17.6,14.7-27,21 c-9.5,6.4-19.8,11.4-29.7,16.3c-11.3,5.6-23,11.4-33.2,18.9c-28.3,20.9-47.7,52.6-66.4,83.2c-14,23-29.9,50.2-41.7,78.3 c-10.5,24.9-16.4,47-18.3,67.6c-2,22.3,0.8,45.3,8.3,68.2c3.7,11.3,7.7,20.1,12.7,27.6c10.3,15.3,26.2,28.7,47.2,39.7 c9.8,5,20,9.4,30.5,12.9c31.8,10.9,58.5,12,81.7,3.3c13.6-5,27.2-13.8,42.6-27.5c24.1-21.7,45.5-46.4,63.6-73.3 c7.1-10.6,13.6-21.2,19.9-31.5l0.7-1.2c11.2-18.4,23.1-38.4,34.6-59.8c10.4-19.4,22.2-42.4,30.9-66.7c3.9-10.8,9-20.2,13.9-29.3 c3.6-6.7,7.1-13,10.1-19.9c7.4-17,23.4-30.9,37.8-42.5c1.5-1.2,3-2.4,4.4-3.6c5.6-4.5,10.9-8.8,16-13.1c9.1-7.7,22.1-19.6,30.9-33.4 c10.3-16.2,12.6-35.8,6.2-52.3c-4.8-12.2-16.5-28.4-45.4-36.2l0.1-0.3l-0.1,0.2C505.3,40.7,482.8,36.1,459,36.1z M225.9,553.7 c-16.6,0-34.9-3.9-55-11.7c-10.7-4.1-21.2-9-31.2-14.5c-21.4-12-37.7-26.1-48.6-41.8c-5.3-7.7-9.7-16.6-13.8-28.1 c-8.3-23.1-11.9-47.2-10.3-69.8c1.5-20.9,7.2-43,17.9-69.4c9.8-24.1,23-49.2,41.4-79.1c19.7-31.8,39.8-62,69-82.2 c10.8-7.4,22.9-13.1,34.6-18.5c10.8-5.1,22-10.3,32.4-17c10.1-6.5,19.6-14.4,28.8-22c5.3-4.4,10.8-8.9,16.4-13.2 c30.1-22.9,64-39.1,100.7-48.2c45.2-11.2,89.4-7.6,124.5,10.1l0,0c27.1,9.1,37.8,26.3,42,39.1c6,18.3,2.6,39.2-9.1,55.8 c-9.5,13.5-23.3,25-32.9,32.4c-4.3,3.3-8.7,6.6-13.4,10.1c-2.6,1.9-5.2,3.9-7.9,5.9c-14.6,11.2-30.8,24.8-39.2,41.4 c-2.9,5.6-6.1,11.2-9.1,16.5c-5.8,10-11.7,20.4-16.2,32.3c-8.9,23.6-19.5,46.9-29.6,68.6c-11.1,23.7-21.2,43.8-31.8,63.2 c-5.9,10.7-12.3,22.3-19.9,33.8c-18,27.5-39.8,52.4-64.8,73.9c-16.3,14.1-30.6,22.9-44.8,27.7C246.6,552.1,236.6,553.7,225.9,553.7z M459.1,32.5c-16.5,0-33.5,2.1-50.7,6.4c-36.6,9-70.4,25.2-100.5,48.1c-5.6,4.3-11.1,8.8-16.4,13.2c-9.2,7.6-18.8,15.5-28.9,22 c-10.4,6.7-21.6,12-32.5,17c-11.7,5.4-23.8,11.1-34.5,18.5c-29.2,20.2-49.2,50.3-68.8,82c-18.4,29.8-31.6,54.9-41.4,79 C74.8,345,69.2,367,67.7,387.8c-1.6,22.5,2,46.5,10.3,69.5c4.1,11.4,8.5,20.3,13.8,27.9c10.8,15.7,27.1,29.7,48.3,41.6 c10,5.5,20.4,10.4,31.1,14.5c33,12.8,60.7,15,84.7,6.9c14.1-4.8,28.3-13.5,44.5-27.5c24.9-21.4,46.6-46.2,64.6-73.7 c7.5-11.5,14-23,19.8-33.7c10.6-19.4,20.7-39.5,31.7-63.1c10.1-21.7,20.7-45,29.6-68.6c4.5-12,10.5-22.4,16.3-32.4 c3.1-5.4,6.3-10.9,9.1-16.5c8.5-16.8,24.7-30.5,39.4-41.7c2.6-2,5.3-4,7.9-5.9c4.7-3.5,9-6.8,13.3-10.1c9.6-7.4,23.4-18.7,32.8-32.2 c11.6-16.5,14.9-37.1,9-55.2c-4.2-12.7-14.7-29.6-41.6-38.6l0.2-0.5l-0.2,0.5C510.7,38,485.7,32.5,459.1,32.5z M225.8,561 c-18.2,0-38.4-4.8-60.9-14.5c-10.9-4.6-21.6-10.1-31.8-16.1c-21.5-12.8-38.2-27.5-49.6-43.7c-6.1-8.8-11.1-18.4-14.9-28.4 c-9.3-23.4-13.6-48-12.3-71.2c1.2-21.3,6.7-43.9,17.5-71c10-25.4,23.8-52.2,41-79.8c19-30.3,40.8-61.1,71.5-81 c11.2-7.3,23.7-12.8,35.8-18.1c11.7-5.2,23.9-10.5,35-17.6c10.7-6.7,20.7-14.9,30.4-22.9c5.5-4.5,11.2-9.2,17-13.5 c31.5-23.8,67-40.4,105.5-49.4c47.4-11.1,93.6-6.3,130,13.5l0,0c19.7,8.1,33.3,23,38.4,41.8c5.3,19.6,0.7,42-12,58.5 c-10,13.1-23.9,23.5-34.9,31.2c-3.1,2.1-6.2,4.3-9.4,6.5c-4.1,2.9-8.4,5.8-12.6,8.8c-12.6,9-30.6,23.1-40.9,40.6 c-2.3,3.9-4.7,7.9-7,11.7c-7,11.5-14.3,23.3-19.7,36.9c-6.8,17.3-13.8,34.6-20.5,51.3c-2.6,6.5-5.2,12.8-7.7,19.1 c-8.9,22.2-17.9,44-28.9,66.5c-5.7,11.9-12.2,23.7-19.1,34.9c-16.7,26.5-39.5,52.2-65.9,74.3c-10.9,9.1-27.5,21.8-46.7,27.7 C244.5,559.7,235.4,561,225.8,561z M459.3,28.8c-16,0-32.5,1.9-49.1,5.8c-38.4,8.9-73.8,25.5-105.2,49.3c-5.8,4.4-11.5,9-16.9,13.5 c-9.7,8-19.8,16.2-30.5,22.9c-11.2,7.1-23.4,12.4-35.1,17.6c-12.1,5.3-24.5,10.8-35.7,18.1c-30.6,19.9-52.4,50.6-71.3,80.8 c-17.2,27.5-31,54.3-41,79.7c-10.7,27-16.3,49.5-17.4,70.8c-1.2,23,3,47.5,12.3,70.8c3.8,10,8.8,19.5,14.8,28.2 c11.4,16.1,28,30.8,49.4,43.5c10.2,6,20.9,11.4,31.7,16c34.2,14.7,62.9,18.1,87.7,10.5c19-5.9,35.6-18.5,46.4-27.5 c26.3-22,49-47.6,65.7-74.1c6.9-11.2,13.4-22.9,19.1-34.8c11-22.5,20-44.3,28.9-66.5c2.5-6.3,5.1-12.7,7.7-19.1 c6.7-16.7,13.7-33.9,20.5-51.3c5.4-13.6,12.7-25.5,19.7-37c2.3-3.8,4.7-7.7,7-11.7c10.3-17.7,28.4-31.8,41.1-40.8 c4.2-3,8.5-6,12.6-8.8c3.2-2.2,6.3-4.3,9.4-6.5c10.9-7.6,24.7-18.1,34.7-31.1c12.5-16.3,17.1-38.5,11.9-57.8 c-5-18.6-18.5-33.3-37.9-41.3l0-0.1l-0.1,0.1C516.2,35.2,488.7,28.8,459.3,28.8z M224.9,568.5c-19.5,0-41-5.7-66-17.5 c-11.1-5.2-22.1-11.1-32.5-17.7C105,519.9,88,504.5,75.9,487.7c-6.4-8.9-11.8-18.6-16-28.7c-10.3-23.7-15.2-48.8-14.3-72.5 c0.8-21.5,6.2-44.6,17-72.7c10.9-28,24.6-55.1,40.7-80.4c16.7-26.3,40.2-59.2,74-79.8c11.7-7.1,24.6-12.5,37-17.7 c12.7-5.3,25.8-10.8,37.8-18.1c11.5-7,22.2-15.7,32.5-24.1c5.5-4.5,11.3-9.2,17.1-13.5c33-24.7,70.1-41.7,110.3-50.6 c49.7-10.9,97.8-4.9,135.5,16.8l0,0c18.3,9.2,30.7,25.1,34.8,44.9c4.4,21.1-1.4,44.4-15.1,60.8c-10.5,12.5-24.5,22.2-36.8,30.1 c-2,1.3-4,2.5-6,3.8c-5.5,3.5-11.2,7.1-16.8,10.8c-19.6,13.2-33.5,26.2-42.5,39.8l-2.7,4c-9.2,13.7-18.6,27.9-25.4,44.3 c-8.7,21-17.2,43.9-26.9,72.2l-1.1,3.1c-7.8,22.9-15.2,44.6-24.9,66.7c-5.3,12.3-11.5,24.4-18.4,35.9 c-16.2,26.7-38.8,51.8-66.9,74.6c-12.4,10-29.1,22.2-48.6,27.7C242,567.3,233.7,568.5,224.9,568.5z M459.7,25 c-15.5,0-31.5,1.8-47.7,5.3c-40.1,8.8-77.1,25.8-110,50.5c-5.8,4.4-11.5,9-17,13.5c-10.4,8.4-21.1,17.1-32.6,24.2 c-12.1,7.4-25.2,12.9-37.9,18.2c-12.4,5.2-25.3,10.6-36.9,17.7c-33.7,20.5-57.1,53.3-73.7,79.6c-16.1,25.3-29.8,52.3-40.7,80.3 c-10.7,28.1-16.1,51.1-16.9,72.4c-0.9,23.6,4,48.5,14.3,72.1c4.2,10.1,9.6,19.7,16,28.6c12.1,16.7,29,32,50.4,45.5 c10.4,6.5,21.3,12.4,32.4,17.6c35.9,16.9,64.7,21.3,90.6,14c19.4-5.4,36-17.6,48.3-27.6c28.1-22.8,50.6-47.8,66.8-74.5 c6.9-11.5,13.1-23.5,18.4-35.8c9.7-22.1,17.1-43.7,24.9-66.6l1.1-3.1c9.7-28.3,18.2-51.3,26.9-72.3c6.8-16.4,16.3-30.6,25.5-44.4 l2.7-4c9.1-13.7,23.1-26.8,42.7-40c5.6-3.7,11.3-7.4,16.9-10.8c2-1.3,4-2.5,6-3.8c12.3-7.8,26.2-17.5,36.6-29.9 c13.6-16.2,19.3-39.3,14.9-60.1c-4.1-19.5-16.3-35.2-34.4-44.3l0,0C521.8,32.5,491.8,25,459.7,25z M247.1,573.2 c20.1-5.1,37.6-17.5,50.5-27.7c29.6-23.4,52.5-48.6,68-75c6.8-11.8,12.8-24.2,17.7-37c8-20.4,14.1-41.6,20-62 c1.1-3.7,2.1-7.4,3.2-11.1c7-23.9,14.9-49.5,25.5-74c7.8-18.1,18.8-33.7,29.4-48c10.4-14,25.3-27.1,44.1-38.9 c6.3-4,12.8-7.7,19.1-11.3c1.5-0.9,3.1-1.8,4.6-2.7c13.7-7.9,27.8-16.9,38.7-28.9c14.8-16.4,21.6-39.8,18.3-62.6 c-3.1-20.8-14.2-38-31.4-48.4l-0.4,0.6c17,10.2,28,27.2,31,47.8c3.3,22.6-3.4,45.8-18.1,62c-10.8,11.9-24.9,20.9-38.5,28.8 c-1.5,0.9-3.1,1.8-4.6,2.7c-6.3,3.6-12.8,7.4-19.1,11.4c-18.9,11.9-33.8,25-44.3,39.1c-10.7,14.3-21.6,30-29.5,48.1 c-10.7,24.5-18.6,50.1-25.6,74c-1.1,3.7-2.1,7.4-3.2,11.1c-5.9,20.4-12,41.6-20,62c-4.9,12.7-10.8,25.1-17.6,36.9 c-15.5,26.4-38.3,51.5-67.8,74.8c-12.9,10.1-30.2,22.5-50.2,27.6c-26.7,6.8-56.5,1.2-93.5-17.6c-11.3-5.7-22.4-12.2-33-19.2 c-21.5-14.3-38.8-30.3-51.6-47.4c-6.6-9-12.3-18.7-17-28.9c-11.2-24-16.8-49.4-16.3-73.5c0.6-28.4,9.7-55.9,16.5-74.1 c10.5-28.3,24.1-55.5,40.3-81c24-37.4,48.2-62.3,76.2-78.3c12.1-6.9,25.2-12.1,38-17.2c13.7-5.4,27.9-11.1,40.8-18.8 c12.3-7.3,23.7-16.5,34.7-25.4c5.6-4.5,11.3-9.2,17.2-13.5c33.8-25.2,73.5-43,114.8-51.6c51.7-10.8,101.7-3.6,140.6,20.2l0.4-0.6 c-39.1-23.9-89.2-31.1-141.2-20.2c-41.4,8.6-81.2,26.5-115.1,51.8c-5.8,4.4-11.6,9-17.2,13.6c-11,8.9-22.3,18-34.6,25.3 c-12.9,7.7-27,13.3-40.7,18.8c-12.8,5.1-26,10.3-38.1,17.2C140,168,115.7,193,91.7,230.5c-16.3,25.5-29.9,52.8-40.4,81.1 c-6.8,18.3-15.9,45.9-16.5,74.3c-0.5,24.2,5.1,49.7,16.3,73.8c4.7,10.2,10.4,19.9,17,29c12.8,17.2,30.2,33.2,51.8,47.5 c10.6,7,21.7,13.5,33.1,19.2c27.1,13.8,50.3,20.5,71.3,20.5C232.2,576,239.7,575.1,247.1,573.2z M223.4,583.6 c-22.4,0-47.1-7.7-76.2-23.6c-11.6-6.3-22.9-13.2-33.7-20.8c-21.5-15.1-39.3-31.7-52.8-49.4c-6.9-9.2-13-19-18.1-29.3 c-12.1-24.4-18.5-50.3-18.3-75.1c0.2-28.3,8.7-55.4,16-76c10.9-30.1,24.4-57.7,40-81.8c23.4-36.1,49.2-61.4,78.9-77.4 c12.5-6.7,26-11.9,39.1-16.9c14.7-5.6,29.8-11.3,43.6-19.3c12.9-7.5,24.8-17,36.3-26.3c5.7-4.6,11.7-9.4,17.7-13.9 c35.3-26.1,76.7-44.4,119.8-53c54.2-10.7,106.2-2.3,146.7,23.6l0,0c15.9,11.5,26.1,30.7,28,52.5c2.1,24-6,47.9-21.5,63.8 c-11.9,12.1-27.2,20.7-40.6,27.7c-1.5,0.8-3,1.6-4.5,2.4c-6.6,3.5-13.4,7.1-20,10.9c-18.3,10.8-33.7,23.6-45.8,38.1 c-13.5,16.2-23.5,31.8-30.8,47.7c-11.2,24.8-18.3,51.1-24.2,75.8c-1.1,4.5-2.1,9-3.2,13.5c-4.9,20.8-9.9,42.4-17.1,62.9 c-4.5,13.1-10.2,25.9-17,38.1c-15.2,26.8-37.8,51.5-69.1,75.4c-13.6,10.4-31.8,22.9-52.4,27.7C237.4,582.8,230.5,583.6,223.4,583.6z M460.9,17.2c-14.7,0-29.9,1.5-45.1,4.5c-43,8.5-84.3,26.8-119.5,52.8c-6,4.5-11.9,9.2-17.7,13.8c-11.5,9.2-23.4,18.8-36.4,26.3 c-13.8,8.1-29,13.8-43.7,19.4c-13.1,5-26.6,10.1-39.1,16.8c-29.6,16-55.3,41.2-78.6,77.1c-15.6,24.1-29.1,51.5-40,81.6 c-7.3,20.5-15.8,47.6-16,75.7c-0.2,24.7,6.2,50.5,18.3,74.8c5.1,10.2,11.1,20.1,18,29.2c13.5,17.7,31.2,34.2,52.7,49.3 c10.8,7.5,22.1,14.5,33.7,20.7c38.2,20.8,68.9,27.6,96.5,21.2c20.5-4.7,38.6-17.2,52.1-27.6c31.2-23.9,53.7-48.5,68.9-75.2 c6.7-12.1,12.4-24.8,16.9-37.9c7.2-20.5,12.2-42,17.1-62.8c1.1-4.5,2.1-9,3.2-13.5c5.9-24.8,13-51.1,24.2-75.9 c7.3-16,17.3-31.6,30.9-47.9c12.2-14.6,27.6-27.5,46-38.3c6.5-3.9,13.4-7.5,20-10.9c1.5-0.8,3-1.6,4.5-2.4 c13.4-7.1,28.7-15.6,40.4-27.6c15.4-15.8,23.3-39.4,21.3-63.2c-1.9-21.6-11.9-40.5-27.7-51.9C533,26.8,498.1,17.2,460.9,17.2z M222.2,591.3c-23.7,0-50-8.7-81.1-26.8c-38-22-66.9-46.1-88.3-73.6c-25.2-32.5-39.3-70.1-39.5-106c-0.2-28.6,8.2-56.5,15.6-77.6 c12.4-35.5,27.9-66.3,46-91.7c21.4-30,46.6-52.5,75-66.9c12.9-6.5,26.7-11.5,40-16.4c15.7-5.7,32-11.6,46.7-20 c13.6-7.7,26-17.7,38-27.2c5.9-4.7,12-9.6,18.1-14.1c36.7-27,79.8-45.8,124.6-54.2c56.4-10.5,110.5-0.9,152.3,27l0,0 c15.1,13.2,24,34.2,24.5,57.6c0.5,24.8-8.7,48.8-24.7,64.1c-13.1,12.5-29.9,20.6-46.1,28.3c-7.2,3.4-14.7,7-21.7,10.9 c-34.8,19.4-62.3,48.7-79.5,84.7c-13.9,29.3-20,62-25.9,93.6c-6.5,35-13.3,71.3-30.7,102.9c-14.7,26.8-37.7,51.6-70.2,75.8 c-15.1,11.2-33.3,23.3-54.3,27.7C235,590.6,228.7,591.3,222.2,591.3z M461.5,13.3c-14.4,0-29.1,1.4-44,4.2 c-44.7,8.4-87.7,27.1-124.3,54c-6.1,4.5-12.2,9.4-18.1,14.1c-12,9.6-24.5,19.5-38.1,27.3c-14.8,8.4-31,14.3-46.8,20 c-13.3,4.8-27.1,9.9-39.9,16.4C122,163.6,96.9,186.1,75.6,216c-18.1,25.3-33.5,56.1-45.9,91.5c-7.4,21-15.8,48.8-15.6,77.3 c0.2,35.7,14.2,73.2,39.4,105.6c21.3,27.5,50.1,51.5,88.1,73.5c39.4,22.9,71,30.7,99.4,24.7c20.9-4.4,39-16.4,54-27.6 c32.4-24.2,55.3-48.9,70-75.6c17.3-31.5,24.1-67.7,30.6-102.6c5.9-31.6,12-64.4,25.9-93.8c17.3-36.1,44.9-65.6,79.8-85.1 c7.1-3.9,14.5-7.5,21.8-10.9c16.2-7.7,32.9-15.7,45.9-28.2c15.8-15.1,25-38.9,24.4-63.5c-0.5-23.2-9.3-44-24.2-57.1 C538.6,23.8,501.4,13.3,461.5,13.3z" fill="#231F20"/></g></svg>