<?xml version="1.0" encoding="UTF-8"?><svg xmlns="http://www.w3.org/2000/svg" xmlns:xlink="http://www.w3.org/1999/xlink" height="201.8" preserveAspectRatio="xMidYMid meet" version="1.0" viewBox="-0.9 25.5 614.3 201.8" width="614.3" zoomAndPan="magnify"><linearGradient gradientUnits="userSpaceOnUse" id="a" x1="-.9" x2="606.824" xlink:actuate="onLoad" xlink:show="other" xlink:type="simple" xmlns:xlink="http://www.w3.org/1999/xlink" y1="127.041" y2="127.041"><stop offset="0" stop-color="#bc15ff"/><stop offset=".484" stop-color="#7fceff"/><stop offset=".666" stop-color="#81cdfe"/><stop offset=".751" stop-color="#89c7fc"/><stop offset=".815" stop-color="#95bff8"/><stop offset=".869" stop-color="#a8b2f2"/><stop offset=".917" stop-color="#bfa2ea"/><stop offset=".96" stop-color="#dc8fe0"/><stop offset=".999" stop-color="#fe78d5"/><stop offset="1" stop-color="#ff77d5"/></linearGradient><path d="M-0.9,191.4v-0.8c11.9,0,24.2-9.9,38.4-21.3c14.6-11.7,31-25,50.2-29.5c25.1-5.9,51.5-6.6,76.9-7.2 c12.5-0.3,25.5-0.6,38.1-1.5c47.6-3.5,82.8-17.5,104.4-41.4c4.7-5.3,9-11.2,13-16.9c5.2-7.2,10.5-14.7,17-21 c26.8-25.8,66.7-26.3,88.2-24.3c17.6,1.7,35.1,5.6,52.1,9.4c13.1,3,26.7,6,40.2,8c22.2,3.2,63.8,5.6,93.2-15.1l0.4,0.6 c-29.6,20.8-71.4,18.5-93.7,15.2c-13.5-2-27.1-5-40.3-8c-16.9-3.8-34.5-7.8-52-9.4c-21.3-2-61-1.5-87.6,24.1 c-6.4,6.2-11.8,13.7-16.9,20.9c-4.1,5.7-8.3,11.6-13.1,16.9c-21.8,24.1-57.1,38.1-104.9,41.7c-12.7,0.9-25.6,1.2-38.1,1.5 c-25.4,0.6-51.7,1.2-76.7,7.1c-19,4.5-35.4,17.7-49.9,29.3C23.6,181.4,11.2,191.4-0.9,191.4z M41.9,171.8c2.1-1.6,4.2-3.2,6.3-4.8 c7.2-5.5,18.3-13.4,30.4-18.7c3.2-1.4,6.6-2.6,10.1-3.5c25.3-6.7,52-6.8,77.9-6.9c4.5,0,9,0,13.6-0.1c8.8-0.1,16.4-0.3,23.4-0.7 c38-2,68.7-10.5,91.2-25.1c5.3-3.4,10.2-7.3,14.8-11.6c5.2-4.9,9.8-10.4,14.3-15.8c5.4-6.4,11-13,17.5-18.7 c7.8-6.7,16.7-12.1,26.2-16.1c18.8-8.1,38.7-12,59.1-11.6c4.3,0.1,8,0.3,11.4,0.6c12.2,1.2,25.2,4.4,37.8,7.4 c6.1,1.5,12.4,3,18.5,4.2c8.8,1.8,16.8,3.2,24.4,4.1c8.6,1.1,16.5,1.5,23.8,1.5c36.7,0,58.4-11.8,68.9-19.8l-0.5-0.6 c-12.5,9.5-41.1,24.5-92.2,18.1c-7.6-0.9-15.5-2.3-24.3-4.1c-6-1.2-12.3-2.8-18.4-4.2c-12.6-3-25.6-6.2-37.9-7.4 c-3.5-0.4-7.2-0.6-11.5-0.7C406,37.1,386,41,367.2,49.1c-9.6,4-18.5,9.4-26.4,16.2c-6.6,5.7-12.2,12.3-17.6,18.8 c-4.5,5.3-9.1,10.8-14.3,15.7c-4.5,4.3-9.4,8.2-14.7,11.5c-22.4,14.5-52.9,22.9-90.8,24.9c-7,0.4-14.6,0.6-23.4,0.7 c-4.5,0.1-9,0.1-13.5,0.1c-25.9,0.1-52.7,0.2-78.1,6.9c-3.5,0.9-6.9,2.1-10.2,3.6c-12.2,5.3-23.3,13.3-30.5,18.8 c-2.1,1.6-4.2,3.2-6.3,4.8c-15.6,12-29.1,22.4-42.2,22.7v0.8C12.7,194.3,26.3,183.9,41.9,171.8z M47.9,172.3l1.1-0.9 c9.5-7.2,19.7-13.6,30.4-18.8c3.2-1.5,6.5-2.8,9.9-3.8c25.6-7.5,52.8-7,79.1-6.6c4.1,0.1,8.2,0.1,12.3,0.2c7.5,0.1,15.4,0,23.4-0.2 c37.4-1.3,68.3-8.5,91.8-21.5c5.3-3,10.5-6.4,15.2-10.2c5.7-4.6,11-9.9,16-15c5.5-5.5,11.1-11.1,17.5-16.1 c8.2-6.3,17.1-11.5,26.6-15.5c16.1-7.1,35.4-14.5,56.6-15.8c3.7-0.3,7.5-0.3,11.2-0.1c11.5,0.6,24.4,3.9,36.9,7.1 c6.8,1.7,13.2,3.4,19.4,4.6c8.4,1.7,16.6,2.9,24.5,3.7c7,0.7,13.5,1.1,19.7,1.1c36.3,0,59-11.6,72.1-22.3l-0.5-0.6 c-27.6,22.4-64.8,23.8-91.2,21c-7.8-0.8-16-2.1-24.4-3.7c-6.2-1.2-12.6-2.8-19.4-4.6c-12.5-3.2-25.5-6.5-37-7.1 c-3.8-0.2-7.6-0.1-11.3,0.1c-21.2,1.3-40.6,8.7-56.8,15.9c-9.5,4.1-18.5,9.3-26.7,15.6c-6.4,5-12.1,10.7-17.5,16.2 c-5,5.1-10.3,10.3-16,14.9c-4.7,3.8-9.8,7.2-15.1,10.2c-23.4,13-54.1,20.2-91.4,21.4c-8,0.2-15.9,0.3-23.4,0.2 c-4.1,0-8.2-0.1-12.3-0.2c-26.4-0.5-53.6-0.9-79.3,6.6c-3.4,1-6.8,2.3-10.1,3.8c-10.8,5.2-21,11.6-30.5,18.9l-1.1,0.9 c-17,12.7-33,24.8-48,25.5v0.8C14.8,197.3,30.9,185.2,47.9,172.3z M49.9,176.1c9.6-7.1,19.8-13.5,30.4-18.9c3.2-1.6,6.5-3,9.8-4 c25.8-8.3,53.4-7.2,80.2-6.2c3.7,0.1,7.5,0.3,11.2,0.4c8.6,0.3,16.2,0.4,23.4,0.3c36.2-0.5,68.2-6.7,92.4-18 c5.4-2.5,10.7-5.5,15.7-8.9c6.5-4.3,12.2-9.2,18.2-14.3c5.4-4.5,10.9-9.2,17-13.5c8.5-5.8,17.6-10.9,27-15c2.6-1.2,5.1-2.3,7.6-3.5 c15.6-7.3,30.3-14.1,46.5-16.5c3.6-0.7,7.3-1,11-0.9c10.8,0.6,23.6,3.9,36,7c7.2,1.8,14,3.5,20.3,4.7c8.1,1.5,16.3,2.7,24.4,3.4 c26.1,2.2,63.1-0.2,90.8-24.2l-0.5-0.6c-27.5,23.8-64.2,26.2-90.2,24c-8.1-0.7-16.3-1.8-24.4-3.4c-6.3-1.2-13.1-2.9-20.3-4.7 c-12.4-3.1-25.3-6.4-36.1-7c-3.7-0.1-7.5,0.2-11.2,0.9c-16.3,2.3-31.1,9.2-46.7,16.5c-2.5,1.2-5,2.3-7.6,3.5 c-9.4,4.2-18.6,9.3-27.1,15.1c-6.1,4.3-11.7,9-17,13.5c-6,5.1-11.7,9.9-18.2,14.2c-5,3.3-10.2,6.3-15.6,8.8 c-24.1,11.2-55.9,17.4-92.1,17.9c-7.1,0.1-14.8,0-23.4-0.3c-3.7-0.1-7.4-0.3-11.2-0.4c-26.8-1-54.5-2.1-80.4,6.3 c-3.4,1.1-6.8,2.5-9.9,4.1c-10.6,5.5-20.9,11.8-30.5,19c-17,12.6-33.7,24-49.8,25v0.7C16,200.2,32.8,188.7,49.9,176.1z M50.8,180.6 c9.7-6.9,19.9-13.3,30.4-19c3.1-1.7,6.4-3.1,9.7-4.3c25.9-9.1,53.8-7.4,80.8-5.9c3.5,0.2,7,0.4,10.5,0.6c8.4,0.5,16,0.7,23.4,0.7 c35.6,0.2,67.7-4.7,93-14.4c5.5-2.1,11-4.6,16.2-7.5c7.5-4.1,14.2-8.8,21.3-13.9c5-3.5,10.1-7.1,15.6-10.6 c8.8-5.3,17.9-10.2,27.2-14.5c6.2-2.9,12-6.1,17.5-9.2c11.3-6.2,21.9-12.1,34-14.9c3.5-0.9,7.2-1.4,10.8-1.6 c10.4-0.4,23.6,3.3,36.3,6.8c7.2,2,13.9,3.9,19.9,5c8.1,1.5,16.4,2.5,24.6,3c25.7,1.6,62.2-1.8,89.8-27.1l-0.5-0.6 c-27.4,25.2-63.7,28.5-89.2,26.9c-8.2-0.5-16.4-1.5-24.5-3c-6-1.1-12.7-3-19.9-5c-12.8-3.6-26-7.3-36.6-6.9c-3.7,0.2-7.4,0.8-11,1.7 c-12.2,2.8-22.9,8.7-34.2,15c-5.6,3.1-11.3,6.3-17.5,9.2c-9.3,4.3-18.5,9.2-27.3,14.6c-5.5,3.4-10.7,7.1-15.7,10.6 c-7.1,5-13.8,9.7-21.2,13.8c-5.2,2.8-10.6,5.4-16.1,7.4c-25.1,9.6-57.2,14.6-92.7,14.3c-7.4,0-15-0.3-23.4-0.7 c-3.5-0.2-7-0.4-10.5-0.6c-27.1-1.6-55.1-3.2-81.1,5.9c-3.4,1.2-6.7,2.7-9.8,4.4c-10.5,5.7-20.8,12.1-30.5,19 C35,190.7,17.2,202.1-0.4,203.6l0.1,0.7C17.7,203,35.6,191.6,50.8,180.6z M51.6,185.2c10.5-7.4,21.8-14.1,30.5-19.1 c3.1-1.8,6.3-3.3,9.6-4.6c26.1-10,54.4-7.7,81.8-5.4c3.2,0.3,6.3,0.5,9.5,0.8c8.1,0.6,16,1,23.4,1.2c34.6,0.9,66.9-2.8,93.5-10.8 c5.6-1.7,11.2-3.7,16.7-6.1c9.1-4,17.4-8.9,26.2-14c4-2.3,8.2-4.8,12.4-7.1c7.7-4.3,15.7-8.2,24.1-12.3l3.5-1.7 c8-3.9,14.9-8.6,21.6-13.2c9-6.1,17.4-11.8,27.4-15.1c3.4-1.2,7-2,10.6-2.4c9.9-0.9,23.3,3,36.3,6.8c7.3,2.1,14.1,4.1,20,5.1 c8.1,1.4,16.4,2.3,24.7,2.6c25.3,1.1,61.2-3.3,88.8-30.1l-0.5-0.5c-27.4,26.6-63.1,31-88.3,29.9c-8.2-0.3-16.5-1.2-24.6-2.6 c-5.8-1-12.6-3-19.9-5.1c-13-3.8-26.5-7.7-36.6-6.8c-3.7,0.4-7.3,1.2-10.8,2.4c-10,3.3-18.5,9.1-27.6,15.2 c-6.7,4.5-13.6,9.2-21.5,13.1L379,107c-8,4-16.4,8-24.1,12.3c-4.3,2.4-8.4,4.8-12.4,7.1c-8.8,5.1-17.1,9.9-26.2,13.9 c-5.4,2.3-11,4.4-16.6,6.1c-26.6,8-58.8,11.7-93.3,10.8c-7.4-0.2-15.3-0.6-23.4-1.2c-3.1-0.2-6.3-0.5-9.5-0.7 c-27.5-2.2-55.9-4.5-82.1,5.5c-3.3,1.3-6.6,2.8-9.7,4.6c-8.7,5-20,11.7-30.5,19.1C32.1,198.1,15.4,205.5,0,207l0.1,0.7 C15.6,206.2,32.5,198.8,51.6,185.2z M52.5,189.7c7.9-5.5,16.4-10.6,24.6-15.6c2-1.2,3.9-2.4,5.9-3.6c3-1.9,6.2-3.5,9.5-4.9 c25.8-10.7,54.1-7.8,81.5-5.1c3.3,0.3,6.5,0.7,9.7,1c7.8,0.8,15.6,1.3,23.4,1.7c33.3,1.6,65.8-0.9,94.1-7.2 c5.8-1.3,11.5-2.9,17.1-4.7c12.8-4.3,24.6-10,37-16.1l3.4-1.6c2.8-1.3,5.5-2.6,8.3-4c6.4-3,13-6.2,19.5-9.5 c9-4.6,16.3-10.7,23.3-16.5c7.5-6.3,14.6-12.2,23.2-15.9c3.3-1.5,6.8-2.6,10.4-3.1c9.5-1.3,23.7,2.9,36.2,6.7 c7.4,2.2,14.3,4.3,20,5.2c8.2,1.3,16.5,2.1,24.7,2.3c36.1,0.8,65.6-10.4,87.8-33.1l-0.5-0.5c-22,22.6-51.4,33.7-87.3,32.9 c-8.2-0.2-16.5-0.9-24.6-2.2c-5.6-0.9-12.6-3-19.9-5.2c-13.2-4-26.9-8.1-36.6-6.7c-3.7,0.6-7.3,1.7-10.6,3.2 c-8.7,3.8-15.8,9.7-23.4,16c-7,5.8-14.2,11.9-23.1,16.4c-6.5,3.3-13.1,6.5-19.5,9.5c-2.8,1.3-5.6,2.7-8.3,4l-3.4,1.6 c-12.4,6.1-24.2,11.8-36.9,16.1c-5.6,1.9-11.3,3.4-17,4.7c-28.2,6.3-60.7,8.8-93.9,7.2c-7.8-0.4-15.6-0.9-23.4-1.7 c-3.2-0.3-6.5-0.6-9.7-1c-27.4-2.8-55.8-5.6-81.8,5.1c-3.3,1.4-6.6,3-9.6,4.9c-1.9,1.2-3.9,2.4-5.9,3.6c-8.2,5-16.7,10.1-24.6,15.6 c-17.2,12.1-34.7,19.2-51.9,21.3l0.1,0.7C17.6,209,35.2,201.8,52.5,189.7z M53.4,194.3c5.7-3.9,11.8-7.6,17.7-11.2 c4.2-2.6,8.6-5.3,12.9-8c3-1.9,6.1-3.7,9.4-5.1c26-11.5,54.6-8,82.3-4.6c3,0.4,5.9,0.7,8.9,1.1c7.7,0.9,15.6,1.6,23.4,2.2 c31.5,2.1,63.4,0.9,94.7-3.7c6.1-0.9,12-2,17.6-3.4c15.4-3.6,29.3-9.1,42.1-14.4c10.6-4.4,19.4-8.3,28.2-13 c9.6-5.1,16.7-12.4,23.7-19.5c6.5-6.6,12.6-12.9,20.4-17.1c3.2-1.8,6.6-3.1,10.2-3.9c9.1-1.8,23.5,2.7,36.3,6.7 c7.4,2.3,14.4,4.5,19.9,5.3c8.2,1.2,16.5,1.8,24.8,1.9c24.1,0.4,58.6-5.6,86.9-36l-0.5-0.5c-27.4,29.4-60.6,35.8-84.4,35.8 c-0.6,0-1.3,0-1.9,0c-8.2-0.1-16.5-0.7-24.7-1.9c-5.4-0.8-12.4-3-19.8-5.3c-12.9-4-27.5-8.5-36.7-6.7c-3.7,0.8-7.2,2.1-10.5,4 c-7.9,4.2-14,10.6-20.5,17.2c-6.9,7.1-14,14.3-23.5,19.4c-8.8,4.7-17.6,8.6-28.2,13c-12.8,5.3-26.7,10.8-42,14.4 c-5.6,1.3-11.5,2.4-17.5,3.4c-31.2,4.5-63,5.8-94.5,3.7c-7.8-0.5-15.6-1.3-23.4-2.2c-2.9-0.3-5.9-0.7-8.9-1.1 c-27.8-3.4-56.6-6.9-82.7,4.7c-3.3,1.5-6.5,3.2-9.5,5.2c-4.2,2.7-8.6,5.4-12.8,8c-5.9,3.6-11.9,7.3-17.7,11.2 c-15.6,10.7-33.8,17.6-52.6,20l0.1,0.7C19.4,212.1,37.7,205.1,53.4,194.3z M54.2,198.8c4.7-3.1,9.6-6.1,14.3-9 c5.4-3.3,11-6.7,16.2-10.3c2.9-2,6.1-3.8,9.3-5.4c25.9-12.4,54.8-8.2,82.6-4.2c2.8,0.4,5.7,0.8,8.5,1.2c7.8,1.1,15.6,2,23.4,2.6 c28.6,2.5,60.7,2.5,95.3-0.1c6.8-0.5,12.7-1.2,18-2c14.9-2.2,29.7-5.9,43.9-11c9.8-3.4,19.4-7.6,28.6-12.5c10-5.5,16.8-14,23.4-22.3 c5.6-7.1,11-13.8,18-18.4c3.1-2.1,6.4-3.7,10-4.6c8.6-2.2,23.3,2.5,36.2,6.6c7.5,2.4,14.7,4.7,20,5.4c8.2,1.2,16.6,1.7,24.9,1.5 c34.7-0.7,63.6-13.9,85.9-39l-0.6-0.5c-22.2,25-50.9,38-85.3,38.8c-8.2,0.2-16.6-0.3-24.7-1.5c-5.2-0.7-12.3-3-19.8-5.4 c-13.1-4.2-27.8-8.9-36.7-6.7c-3.7,1-7.1,2.6-10.3,4.7c-7.1,4.7-12.5,11.5-18.2,18.6c-6.6,8.2-13.3,16.7-23.2,22.1 c-9.1,4.9-18.7,9.1-28.5,12.4c-14.1,5.1-28.9,8.8-43.7,11c-5.3,0.8-11.2,1.5-18,2c-34.5,2.6-66.6,2.6-95.2,0.1 c-7.7-0.7-15.6-1.6-23.4-2.6c-2.8-0.4-5.6-0.8-8.5-1.2c-28-4-56.9-8.2-83.1,4.2c-3.3,1.6-6.4,3.4-9.4,5.4c-5.2,3.6-10.8,7-16.2,10.3 c-4.7,2.9-9.6,5.9-14.3,9c-18,12.1-37,16.3-53.2,18.8l0.1,0.7C17,215.2,36.1,211,54.2,198.8z M55.1,203.4c4-2.6,8.2-5.2,12.2-7.6 c6.1-3.7,12.5-7.6,18.3-11.8c2.9-2.1,6-4,9.2-5.6c25.8-13.2,54.8-8.4,82.9-3.8c2.7,0.5,5.5,0.9,8.2,1.3c7.8,1.2,15.6,2.3,23.4,3.1 c32.9,3.6,66.7,3.6,95.9,3.5c7.2-0.1,13.1-0.3,18.5-0.6c15.4-0.8,30.8-3.4,45.6-7.7c10-2.9,19.8-6.9,28.9-11.9 c10.2-5.8,16.6-15.5,22.8-25c5-7.6,9.6-14.8,16.2-20c2.9-2.4,6.3-4.2,9.9-5.4c8.2-2.6,23.2,2.3,36.4,6.7c7.5,2.5,14.7,4.8,19.8,5.5 c8.2,1.1,16.6,1.5,24.9,1.1c33.9-1.5,62.5-15.6,84.9-42l-0.6-0.5c-22.3,26.2-50.6,40.3-84.3,41.7c-8.3,0.4-16.6,0-24.8-1.1 c-5-0.7-12.1-3-19.6-5.4c-13.3-4.4-28.5-9.3-36.9-6.7c-3.7,1.2-7.1,3.1-10.1,5.5c-6.6,5.2-11.3,12.5-16.3,20.1 c-6.1,9.4-12.4,19.1-22.5,24.7c-9.1,5-18.8,9-28.7,11.9c-14.8,4.3-30.1,6.9-45.4,7.7c-5.4,0.4-11.3,0.5-18.5,0.6 c-29.1,0.2-62.9,0.1-95.8-3.4c-7.8-0.8-15.6-1.9-23.4-3.1c-2.7-0.4-5.4-0.9-8.2-1.3c-28.2-4.7-57.3-9.5-83.3,3.8 c-3.2,1.6-6.3,3.6-9.3,5.7c-5.8,4.2-12.1,8.1-18.3,11.8c-4,2.5-8.2,5-12.3,7.6c-17.2,11.4-35.9,14.5-53.9,17.5L1,221 C19,218,37.8,214.8,55.1,203.4z M9.1,222.9c16.5-2.8,32.2-5.5,46.8-15c3.6-2.3,7.3-4.5,10.8-6.7c6.6-4,13.5-8.1,19.7-12.9 c2.8-2.2,5.9-4.2,9.1-6c25.8-14,55-8.6,83.2-3.3c2.6,0.5,5.2,1,7.8,1.4c7.4,1.3,15.3,2.6,23.4,3.6c25.2,3.2,51,4.6,75.9,5.9 c6.9,0.4,13.8,0.7,20.6,1.1c7.7,0.4,13.5,0.7,19,0.8c18.6,0.3,33.6-1.1,47.3-4.4c10.3-2.4,20.1-6.2,29.2-11.4 c10.4-6,16.1-16.9,21.7-27.4c4.4-8.2,8.5-16,14.7-21.7c2.8-2.7,6-4.8,9.7-6.2c7.8-2.9,23.1,2.2,36.7,6.7c7.6,2.5,14.7,4.9,19.5,5.5 c8.3,1,16.7,1.3,25,0.8c33.2-2.2,61.4-17.3,83.9-45l-0.6-0.5c-22.4,27.5-50.4,42.6-83.4,44.7c-8.3,0.5-16.6,0.3-24.8-0.8 c-4.8-0.6-11.9-3-19.4-5.5c-13.6-4.6-29.1-9.7-37.2-6.7c-3.7,1.4-7,3.6-9.9,6.3c-6.2,5.8-10.6,14-14.8,21.9 c-5.5,10.4-11.3,21.2-21.4,27.1c-9.1,5.2-18.8,9-29,11.3c-13.7,3.3-28.6,4.7-47.1,4.3c-5.5-0.1-11.3-0.3-19-0.8 c-6.8-0.4-13.7-0.8-20.6-1.1c-24.9-1.3-50.6-2.7-75.8-5.9c-8.1-1-16-2.2-23.4-3.6c-2.6-0.5-5.2-1-7.8-1.4 c-28.4-5.3-57.7-10.8-83.7,3.4c-3.2,1.8-6.3,3.8-9.2,6c-6.2,4.8-13,8.9-19.6,12.8c-3.6,2.2-7.3,4.4-10.9,6.7 C41,216.7,25.4,219.4,9,222.2c-2.7,0.5-5.3,0.9-8,1.4l0.1,0.7C3.8,223.8,6.4,223.4,9.1,222.9z M14.8,225.3c14.9-2.3,29-4.6,42-12.8 c3.2-2.1,6.6-4,9.9-6c7-4.2,14.3-8.5,20.7-13.7c27.7-22.5,60.7-15.6,92.6-9c2.5,0.5,4.9,1,7.4,1.5c26.4,5.4,53.8,8,80.2,10.5 c13.2,1.3,26.9,2.5,40.2,4.2c28.8,3.5,68.2,8.2,98.1-9.8c10.5-6.3,15.7-18.3,20.7-29.9c5.6-12.9,10.8-25,22.6-30.3 c7.4-3.3,23,2,36.7,6.7c7.6,2.6,14.8,5.1,19.5,5.6c43.2,4.9,79.5-11.2,108-47.6l-0.6-0.5c-28.3,36.2-64.4,52.1-107.3,47.3 c-4.6-0.5-11.8-3-19.3-5.6c-13.8-4.7-29.5-10.1-37.2-6.7c-12.1,5.4-17.6,18.2-23,30.6c-5,11.5-10.1,23.4-20.4,29.6 c-29.7,17.9-68.9,13.1-97.6,9.7c-13.4-1.6-27-2.9-40.3-4.2c-26.4-2.5-53.7-5.1-80.1-10.5c-2.4-0.5-4.9-1-7.4-1.5 c-32.1-6.7-65.2-13.6-93.2,9.1c-6.4,5.2-13.6,9.5-20.6,13.6c-3.3,1.9-6.6,3.9-9.9,6c-12.9,8.2-26.9,10.4-41.7,12.7 c-4.4,0.7-9,1.4-13.6,2.3l0.1,0.7C5.8,226.7,10.4,226,14.8,225.3z" fill="url(#a)"/></svg>